<?xml version="1.0" encoding="utf-8"?>
<!-- Generator: Adobe Illustrator 28.3.0, SVG Export Plug-In . SVG Version: 6.00 Build 0)  -->
<svg version="1.1" id="Layer_2" xmlns="http://www.w3.org/2000/svg" xmlns:xlink="http://www.w3.org/1999/xlink" x="0px" y="0px"
	 viewBox="0 0 212.2 91.5" style="enable-background:new 0 0 212.2 91.5;" xml:space="preserve">
<style type="text/css">
	.st0{fill:none;stroke:#FFFFFF;stroke-width:3;stroke-miterlimit:10;}
</style>
<path class="st0" d="M38.8,1.7c0,0-20.2,1.4-32.3,6.5C4.6,9,3.4,10.7,3.3,12.7L1.6,36.6c-0.3,4,0.1,8.1,1.2,12
	c1.3,4.5,3.8,9.4,8.5,11.2c0,0,18.4,6.8,56.2,5.9c0,0,9-0.6,17.8-10.7c3.5-4.1,8.5-6.7,13.9-6.7c5.6,0,12.5,2.5,18.9,11.9
	c1.8,2.6,3,5.6,3.8,8.6c1,3.8,4,10.1,12.6,12.9c0,0,20.2,11.7,53,7.4c5.5-0.7,10.5-3.9,13.4-8.6c3.9-6.3,8.5-16.5,9.6-30.3
	c0,0,2.2-13-11-18.4c-0.6-0.3-1.3-0.5-1.9-0.8c-6.9-3.2-42.2-20.7-112.4-28.2C85.2,2.7,62.3,1,38.8,1.7z"/>
</svg>
