<?xml version="1.0" encoding="utf-8"?>
<!-- Generator: Adobe Illustrator 28.3.0, SVG Export Plug-In . SVG Version: 6.00 Build 0)  -->
<svg version="1.1" id="Layer_1" xmlns="http://www.w3.org/2000/svg" xmlns:xlink="http://www.w3.org/1999/xlink" x="0px" y="0px"
	 viewBox="0 0 179.3 165.3" style="enable-background:new 0 0 179.3 165.3;" xml:space="preserve">
<style type="text/css">
	.st0{fill:#FFFFFF;}
</style>
<g>
	<path class="st0" d="M176.8,50c-0.3,0.7-0.5,1.5-0.8,2.2c-1-0.9-2.3-1.6-3.4-2.1c-1.4-0.6-3.6-1.5-5.6-1.7c0.8-2.2,1.5-4.5,2.3-6.7
		c0.1-0.3,0.1-0.6,0-0.8c0.7-0.7,0.6-2.2-0.7-2.2c-12.2,0.6-24.3-3.7-36.6-3.5c-11.6,0.2-23.8,4.9-33.4,11.7
		c-0.9-10.8-9.7-19.9-17.4-26.7c-9.2-8-19.9-15.5-31.6-19.3c-0.3-1-2.1-1.2-2.5,0c0,0.1,0,0.2-0.1,0.3c0,0,0,0,0,0
		c-0.3,2.4-3,5.8-4,8.1c-0.4,1-0.8,2.1-1.2,3.2c-1.5-1.8-4.6-3.3-6.9-4.3c0-0.2,0.1-0.3,0.1-0.5c0.2-1.6-2.1-1.8-2.5-0.3
		c-1.1,0.1-1.6,1.9-0.4,2.4C29.5,26.2,24,41.9,17.9,57.4c-3.1,7.8-6.3,15.5-9.4,23.2c-3.2,8-5.7,16.2-8.4,24.4
		c-0.5,1.6,1.9,2.4,2.4,0.8c0-0.1,0-0.1,0.1-0.2c23.5-1.3,51.2,11.4,61.8,33.4c-0.3,0.1-0.6,0.1-1,0.2c-1.5,0.3-1.2,2.4,0.2,2.5
		c0,0,0,0,0,0c0.6,0.4,1.2,0.8,1.7,1.2c0.4,0.3,0.9,0.3,1.3,0.1c0.3-0.1,0.6-0.2,0.9-0.3c0.7-0.3,0.8-1.1,0.6-1.7
		c0-0.1,0-0.1-0.1-0.2c6.3-1.6,12.4-3.9,18.9-4.3c5.9-0.4,11.8,1.8,17.4,3.7c5.7,1.9,11.4,4.1,16.8,6.7c2.9,1.4,11.5,4.8,11.7,8.9
		c0.1,1.3,1.8,1.7,2.4,0.9c1.5,2.2,2.4,4.8,2.8,7.7c0.2,1.3,2.1,1.3,2.5,0.2c12.9-37.9,25.9-75.8,38.8-113.7
		C179.8,49.2,177.4,48.4,176.8,50z M135,37.7c10.7,0.1,21.2,3.7,31.8,3.5c-0.8,2.5-1.7,5-2.6,7.5c-0.1,0.1-0.3,0.1-0.4,0.2
		c-0.8,0.5-0.8,1.4-0.4,2c-10.3,30-21.1,59.8-31.3,89.8c-5.8-7.6-21.3-8.8-29.3-9.5c-9.2-0.8-22.1-1.2-31.4,3.1
		c4.1-12.7,7.5-25.7,12.4-38.2c5.8-15,12.7-29,14.6-45.1c0-0.2,0-0.4-0.1-0.6C108.6,42.4,122,37.6,135,37.7z M77,19.7
		c8.1,6.6,18.7,16.4,19.3,27.6c0,0.4,0.2,0.8,0.5,1c-0.3,0.2-0.6,0.5-0.9,0.7c-0.7,0.6-0.5,1.4,0,1.8C93.9,66.5,87.7,81,81.3,95.2
		c-5.2,11.7-8.1,24.5-11.9,36.8c-1.2-3.3-2.8-6.7-4.8-9.3c-5.9-7.8-14.8-14.1-22.9-19.4c-7.7-5-15.8-9.2-24.7-11.2
		c2.1-7.8,7-14.3,10.3-21.7c3.7-8.4,5.7-17.5,8-26.3c2-7.9,4.5-15.6,6.8-23.3c1.1-3.6,2.2-7.2,3.6-10.7C46.5,8,48.1,5.9,49,3.8
		c0.2-0.1,0.4-0.1,0.5-0.3C59.6,6.8,68.8,13.1,77,19.7z M3.4,103c2.1-6.7,4-13.4,6.8-19.8c3.5-8.3,6.8-16.7,10.1-25
		c6.1-15.4,11.5-31.1,14.3-47.4c0.9,0.4,1.8,0.9,2.6,1.4c0.7,0.4,1.4,0.9,2,1.4c0.3,0.2,1,1.1,1.1,0.9c-0.4,0.7-0.1,1.4,0.4,1.7
		c-0.4,1.2-0.8,2.5-1.1,3.7c-2.5,8.4-5.2,16.7-7.3,25.3C30.1,54.2,27.8,63,24,71.4c-3.1,7-7.4,12.8-9.5,20.2
		c-0.8-0.1-1.5-0.3-2.3-0.4c-1.6-0.2-1.8,2.3-0.2,2.6c0.6,0.1,1.2,0.2,1.8,0.3c0,0,0,0.1,0,0.1c-0.3,1.5,2,1.7,2.5,0.4
		c13.8,3.1,25.9,11.5,36.7,20.4c4.3,3.6,9.1,7.6,11.5,12.8c0.8,1.8,1.6,3.6,2.3,5.4c0.4,1,0.8,1.9,1.1,2.9c-0.6,0.4-1.1,0.8-1.6,1.2
		C55.4,115.2,27.4,102,3.4,103z M132.7,150.4c-0.3-0.2-0.6-0.3-0.9-0.2c-1.3-1-2.7-1.9-4-2.6c-6.1-3.7-13-6.3-19.7-8.7
		c-5.9-2.1-12-4.3-18.2-4.8c-6.4-0.6-12.6,1.4-18.7,3.2c8.7-4.7,21.3-4.2,30.3-3.6c6.4,0.4,12.8,1.4,18.9,3.4
		c3.9,1.2,9.2,3.2,10.9,7.3c0,0,0,0,0,0c0,0,0,0,0,0c0.3,0.6,0.8,0.8,1.4,0.6c0.4,0,0.8-0.3,1-0.8c10.6-31.1,21.8-62.1,32.5-93.2
		c1.4,0,3.1,0.7,4.1,1c0.8,0.3,5,1.8,4.7,3.2c-11.9,34.8-23.8,69.6-35.6,104.3C138.2,155.9,135.9,152.9,132.7,150.4z"/>
</g>
</svg>
