<?xml version="1.0" encoding="utf-8"?>
<!-- Generator: Adobe Illustrator 28.3.0, SVG Export Plug-In . SVG Version: 6.00 Build 0)  -->
<svg version="1.1" id="Layer_1" xmlns="http://www.w3.org/2000/svg" xmlns:xlink="http://www.w3.org/1999/xlink" x="0px" y="0px"
	 viewBox="0 0 247.6 139.3" style="enable-background:new 0 0 247.6 139.3;" xml:space="preserve">
<style type="text/css">
	.st0{fill:#FFFFFF;}
</style>
<g>
	<path class="st0" d="M6.5,136.3C6.5,136.4,6.5,136.4,6.5,136.3c-0.3,1,0.5,2.1,1.4,2.3c0.5,0.1,0.9,0,1.4,0
		c0.2,0.1,0.4,0.3,0.6,0.4c1.3,0.8,2.5-0.3,2.6-1.5c0.5-0.2,0.9-0.5,1.3-0.7c5.3-2.4,11-4.4,16.5-6.1c7.2-2.2,15.7-1.2,22.4-4.6
		c0.2,0.3,0.5,0.5,0.7,0.8c-0.6,1.2,0,3,1.7,2.6c0.3,0,0.5-0.1,0.8-0.1c0.6,0.5,1.1,1.1,1.7,1.6c1.7,1.4,3.9-0.8,2.8-2.4
		c15.7-2.9,31.6-5.5,46.6-11.2c0,0,0,0,0,0c1,1,2,2,3.1,2.9c0.2,0.8,0.8,1.6,1.9,1.7c0.1,0,0.1,0,0.2,0c0.4,0.3,0.9,0.6,1.3,0.9
		c1.2,0.8,2.6,0.1,3.1-1c20.5-0.8,39.6-11.4,59.9-13.7c0.5,0.2,1,0.1,1.5-0.2c1-0.2,1.5-1,1.5-1.9c0.2-0.2,0.3-0.4,0.5-0.7
		c1.6-1.3,3-3.2,4.1-5.6c0.3-0.7,0.2-1.3-0.1-1.8c6.2-15.4,2.8-34.7-5.9-48.3c-4.7-7.4-18.9-17.9-29.3-15.9
		c-0.4-0.2-0.9-0.3-1.5-0.1C131.4,39.2,112.9,46,99.3,57c-0.8-0.2-1.9,0-2.3,0.9c-0.3,0.6-0.6,1.2-0.8,1.8c-0.7,0.7-1.5,1.4-2.2,2.1
		c-0.7,0.7-0.6,1.6-0.1,2.2C83.3,77.2,62.9,75.7,49.7,85.3c-0.9-0.6-2.1-0.5-2.5,0.7c-1.1,3.3-1.9,6.6-2.4,9.9
		c-4.5,4-12.3,7.1-16.1,9.2c-7.5,4-16.7,9.6-25.3,10.6c-1-0.7-2.7-0.5-3,1.1C-1,124,1.4,131.4,6.5,136.3z M99,62.8
		c0.4-0.2,0.7-0.6,0.9-1.2c0-0.1,0.1-0.3,0.1-0.4c11.1-9.7,26.2-16.1,40.3-21.2c-7.4,13.2-0.6,33.1,5.2,45.6
		c3.5,7.6,8.1,13.6,15.1,18.3c1.4,1,2.9,1.8,4.4,2.4c-17.2,4.1-33.8,11.9-51.5,11.7C98,105.6,91.9,81.4,99,62.8z M175.8,53.3
		c8.8,13.8,10.7,35.3,1.4,49.4c-6.7,5.1-17.5-2.6-22.5-8.7c-3.7-4.6-6.2-10.2-8.4-15.6c-4-10.2-8.1-24.5-3.5-35.2
		c2.3-5.4,7.6-6,12.8-5C164.4,39.9,171.1,45.9,175.8,53.3z M93.1,70.1c-2.7,15.2,1.5,32.2,11.2,44.1c-15.2,5.6-31.3,8-47.2,11.1
		c-0.4-0.4-0.9-0.9-1.2-1.3c0.3-0.3,0.6-0.5,0.9-0.8c1.7-1.7-1.1-4.1-2.8-2.4c-0.1,0.1-0.2,0.2-0.4,0.3c-4.7-6.8-6.2-14.8-5.3-23.1
		c1.3-1.3,2.3-2.6,2.8-4c0.5-1.4-0.5-2.5-1.6-2.7c0.1-0.4,0.2-0.8,0.3-1.2C61.9,79.4,81.1,80.5,93.1,70.1z M29.3,109.1
		c3.8-1.9,10.1-4.6,15.1-8c-0.2,7.9,1.7,15.4,6.1,22c-6.2,3.1-15.1,2.5-21.4,4c-5,1.2-9.7,3.5-14.5,5.2c-0.9,0.3-2.4,1.4-3.8,2
		c-0.4-0.6-1.1-0.9-1.8-0.8c-3.7-3.6-5.6-8.9-5.1-14.1C12.7,118.4,21.5,113.1,29.3,109.1z"/>
	<path class="st0" d="M245.7,77.1c-13.3,2.2-26.7,2.4-40.1,3.2c-2.4,0.1-2.2,3.9,0.2,3.7c13.4-0.8,26.9-1,40.1-3.2
		C248.3,80.5,248,76.7,245.7,77.1z"/>
	<path class="st0" d="M215.7,42.6c-4.7,1.7-11.2,4-13.6,8.8c-1.1,2.2,2.3,3.8,3.4,1.6c2.3-4.7,10.5-6.6,15-8.2
		c5.9-2.1,12-3.8,18-5.8c2.3-0.8,1.1-4.3-1.2-3.5C230,37.9,222.8,39.9,215.7,42.6z"/>
	<path class="st0" d="M187,35.5c12.2-10.2,29-14,38.7-27.2c1.4-1.9-1.4-4.4-2.8-2.4c-9.5,12.9-26.1,16.6-38,26.6
		C183,34,185.1,37.1,187,35.5z"/>
	<g>
		<path class="st0" d="M138.7,10c6.8-3.8,14.2-6.8,21.4-9.8"/>
		<g>
			<path d="M138.9,10.2c6.8-3.8,14.1-6.7,21.3-9.7c0.3-0.1,0.2-0.6-0.1-0.5c-7.2,3-14.6,6-21.4,9.8C138.3,10,138.6,10.4,138.9,10.2
				L138.9,10.2z"/>
		</g>
	</g>
	<g>
		<path class="st0" d="M140.8,41.4c4.5-2.1,9-4.2,13.7-5.8c0.1,0.2,0.4,0.3,0.6,0.1c0.3-0.2,0.6-0.4,1-0.7c0.4-0.2,0.3-0.9-0.2-0.7
			c-5.4,1.6-10.4,4.1-15.5,6.4C140,40.9,140.4,41.6,140.8,41.4z"/>
		<path class="st0" d="M141.7,41.8c-0.5,0-0.5,0.7,0,0.8c3.7,0.2,7.7-1.1,11.2-2.2c1-0.3,5.7-1.4,5.3-3.2c-0.1-0.5-0.8-0.3-0.7,0.2
			C157.9,39.5,143.4,41.9,141.7,41.8z"/>
		<path class="st0" d="M184.4,72.7c-0.7-0.6-3.3,1.2-3.8,1.5c-2.4,1.3-4.7,2.6-7.1,3.9c-0.1-3.5-0.6-7.1-1.6-10.5c0,0,0.1,0,0.1,0
			c2.5-2.3,5.8-3.2,9.1-3.3c0.5,0,0.5-0.8,0-0.8c-3.4,0.1-6.9,1-9.4,3.3c-0.9-2.9-2.2-5.6-4-8c3.3-1.9,7.1-2.5,10.8-2.8
			c0.5,0,0.5-0.8,0-0.8c-3.9,0.4-7.9,1-11.3,3c-0.2-0.2-0.3-0.4-0.5-0.6c-1.3-1.6-3.3-3.8-5.6-6.1c3-1.1,6.2-1.4,9.4-2.2
			c0.9-0.2,3.6-0.6,2.7-2.2c-0.1-0.2-0.3-0.2-0.5-0.1c-0.2,0.1-0.5,0.2-0.7,0.4c-0.3,0.1-0.3,0.6,0,0.7c-0.3,0.1-0.6,0.2-0.8,0.3
			c-1.4,0.5-2.8,0.7-4.3,1c-2.2,0.4-4.3,0.8-6.3,1.6c-1.5-1.4-3.1-2.8-4.8-4c4-1.5,8.2-3.1,12.2-3.3c0.5,0,0.5-0.8,0-0.8
			c-4.3,0.2-8.8,2-13,3.5c-1.4-0.9-2.9-1.8-4.3-2.3c1.3-0.7,2.7-1.2,4.1-1.8c1.8-0.7,5.1-2.2,7-1.4c0.4,0.2,0.8-0.5,0.4-0.6
			c-1.9-0.8-4.5,0.3-6.3,0.9c-2.1,0.7-4.2,1.5-6.2,2.6c-3.4-1.1-6.7-0.7-9.3,2.3c-0.3,0.4,0.2,0.9,0.5,0.5c2.2-2.5,5-3,8-2.3
			c-0.3,0.2-0.6,0.4-0.9,0.6c-0.4,0.3,0,0.9,0.4,0.6c0.5-0.3,1-0.6,1.5-0.9c1.4,0.5,2.9,1.2,4.4,2.2c-0.7,0.2-1.4,0.5-2.1,0.7
			c-0.5,0.1-0.3,0.9,0.2,0.7c0.9-0.3,1.8-0.6,2.6-0.9c1.7,1.2,3.3,2.6,4.9,4c-0.2,0.1-0.5,0.2-0.7,0.3c-0.4,0.2-0.1,0.9,0.4,0.6
			c0.3-0.2,0.6-0.3,0.9-0.4c2.4,2.3,4.5,4.8,6.1,6.9c-0.2,0.1-0.4,0.2-0.6,0.4c-0.4,0.3,0,0.9,0.4,0.6c0.2-0.2,0.4-0.3,0.7-0.4
			c0.7,0.9,1.3,1.8,1.7,2.5c2.6,4.2,4.1,10.2,4.6,16.5c-0.2,0.1-0.4,0.2-0.5,0.3c-0.4,0.2,0,0.9,0.4,0.6c0.1,0,0.1-0.1,0.2-0.1
			c0.2,3.6,0.1,7.2-0.4,10.6c0,0-0.1,0-0.1,0c-0.4,0.1-0.3,0.6,0,0.7c-0.4,2.7-1,5.2-1.8,7.5c-0.1,0-0.1,0.1-0.2,0.1
			c-0.3,0.1-0.2,0.4,0,0.6c-0.7,1.8-1.4,3.4-2.4,4.8c-0.3,0.4,0.4,0.8,0.6,0.4c0.3-0.5,0.6-1,0.9-1.5c0.1,0.2,0.4,0.2,0.6,0.1
			c0.3-0.2,0.6-0.4,1-0.7c0.3-0.1,0.3-0.4,0.2-0.6c1.4-0.2,2.9-0.6,4.3-1c1.8-0.5,4-1,5.6-2c0.3-0.2,0.2-0.6-0.1-0.7
			c-0.4-0.1-0.7,0.1-1.1,0.1c-0.3,0-0.4,0.3-0.3,0.4c-1.1,0.4-2.4,0.7-3.5,1.1c-1.9,0.6-3.7,1.1-5.7,1.4c0.3-0.7,0.6-1.3,0.8-2
			c3.8-1.7,7.8-3.2,11.5-5.1c0.4-0.2,0.1-0.9-0.4-0.6c-3.5,1.7-7.2,3.2-10.9,4.8c0.7-2.3,1.1-4.7,1.3-7.2c2.2-0.6,4.3-1.7,6.2-2.8
			c1.5-0.8,3.4-1.8,4.5-3.2c0.3-0.4-0.2-0.9-0.5-0.5c-1,1.3-2.9,2.2-4.4,3.1c-1.8,1.1-3.7,2.1-5.8,2.6c0.2-3.3,0.2-6.6,0.2-9.9
			c0-0.2,0-0.5,0-0.7c1.7-1,3.5-2,5.3-3c1.1-0.6,2.2-1.2,3.3-1.8c0.4-0.2,2-0.9,1.8-1.1C184.2,73.5,184.7,73,184.4,72.7z
			 M170.4,101.5C170.4,101.5,170.4,101.5,170.4,101.5C170.4,101.5,170.4,101.5,170.4,101.5C170.4,101.5,170.4,101.5,170.4,101.5z"/>
		<path class="st0" d="M135.8,49.4c-8.3,9.2-22.6,10.9-33.4,15.9c-0.1-0.1-0.1-0.1-0.2-0.2c-0.3-0.3-0.6,0-0.6,0.3
			c-1.3,11.2,1.7,23.9,5.5,34.5c3,8.3,8.2,15.7,16.5,19.2c0.4,0.2,0.6-0.5,0.2-0.7c-10.1-4.2-14.8-14.2-17.8-24.1
			c-2.5-8.3-4.8-18.7-4-27.3c0,0.5,0.7,0.5,0.8,0c0-0.5,0.1-0.7,0.1-0.9c10.8-5.1,25.2-6.8,33.5-16.1
			C136.7,49.6,136.2,49.1,135.8,49.4z"/>
		<path class="st0" d="M93.6,77.8C81,81.6,70.2,89.4,58,94.3c-0.2,0.1-0.3,0.3-0.2,0.5c0,0,0,0,0,0c-5.4,10.1,2.9,20.8,6.7,29.9
			c0.2,0.4,0.9,0.2,0.7-0.2c-3.7-8.9-12-19.5-6.8-29.3c0.1-0.1,0.1-0.2,0-0.3c12.1-5,22.8-12.6,35.4-16.4
			C94.3,78.4,94.1,77.7,93.6,77.8z"/>
		<path class="st0" d="M12,123.3c0.9,3.4,2.9,6.3,3.8,9.7c0.1,0.5,0.8,0.3,0.7-0.2c-0.8-3.4-2.8-6.4-3.8-9.8
			C12.6,122.6,11.9,122.8,12,123.3z"/>
		<path class="st0" d="M44,103c-9.4,10-23.4,13.2-34.8,20.2c-0.4,0.3,0,0.9,0.4,0.6c11.4-7.1,25.5-10.3,35-20.3
			C44.8,103.2,44.3,102.7,44,103z"/>
	</g>
</g>
</svg>
