<?xml version="1.0" encoding="utf-8"?>
<!-- Generator: Adobe Illustrator 28.3.0, SVG Export Plug-In . SVG Version: 6.00 Build 0)  -->
<svg version="1.1" id="graphic" xmlns="http://www.w3.org/2000/svg" xmlns:xlink="http://www.w3.org/1999/xlink" x="0px" y="0px"
	 viewBox="0 0 447.4 416.4" style="enable-background:new 0 0 447.4 416.4;" xml:space="preserve">
<style type="text/css">
	.st0{fill:#FFFFFF;}
</style>
<g>
	<path class="st0" d="M182.7,205.8c-9.8-15-16.2-32.6-16.4-50.4c-0.2-14.1,15.1-22.5,24.9-30.5c10-8.1,20.2-16,30.6-23.7
		c42.8-31.7,88.9-59.4,138.7-78.7C387.4,12.2,416,2.8,445.1,3.9c2.5,0.1,2.8-3.7,0.3-3.8c-26.2-1.1-51.6,6.2-76.1,15
		c-27.7,10-54.3,22.6-79.8,37.2c-25.1,14.3-49.1,30.3-72.2,47.6c-11.7,8.7-23.1,17.7-34.4,26.9c-8.9,7.2-19.8,13.9-20.5,26.5
		c-1.4,26.8,13.4,56.2,33.4,72.9c0.8,0.7,1.9-0.1,2.1-1C191.9,219.5,186.5,213.3,182.7,205.8z"/>
	<path class="st0" d="M281.2,241.9c10.9-9.7,21.5-19.6,31.9-29.8c20.6-20.2,40.2-41.4,58.3-63.9c18.4-22.9,35-47.3,49.2-73
		c12.5-22.8,23.7-46.7,26.7-72.8c0.3-2.5-3.5-2.7-3.8-0.3c-3.4,29-17.2,55.7-31.7,80.6c-26.9,46.1-61.5,87.3-99.5,124.7
		c-9.2,9-18.6,17.9-28.2,26.5c-9.4,8.5-20.1,22.3-34,19.9c-17.9-3.1-34.7-12.5-48.1-24.9c-6.1-5.1-11.7-10.7-16.1-17.2
		c-0.8,0.2-1.5,1.1-1,1.9c13.4,22.4,40.1,41.6,66.8,44.4C264.3,259.3,272.7,249.5,281.2,241.9z"/>
	<path class="st0" d="M215.7,240.7c-17.4-13.5-31.3-30.9-42.9-49.4c-0.2-0.3-0.7-0.2-0.6,0.2c2.5,10.8,9.7,20.5,17,28.6
		c7.4,8.2,15.6,17.3,25.7,22.2C215.9,242.7,216.4,241.3,215.7,240.7z"/>
	<path class="st0" d="M398.7,106.4c-14.8-9.8-28.5-20.5-40-34c-5.7-6.6-10.8-13.7-15.3-21.1c-4-6.6-5.5-12.2-6.4-19.8
		c0-0.1-0.1-0.1-0.1,0c-3.9,3.9-2.2,9.8-0.4,14.4c3.4,8.4,9.2,16.3,14.7,23.5c12.2,15.9,27.9,30.4,45.7,39.9
		C398.7,110.2,400.5,107.6,398.7,106.4z"/>
	<path class="st0" d="M342.8,140.2c6.8-19.7-6.8-44.5-26.3-51.5c-10.5-5.4-23.8-4.5-35.5,1.5c-17.7,9-26.8,28-21.7,47.4
		C269.8,176.7,329.5,178.8,342.8,140.2z M280.1,159c-17.2-10.1-23.8-34.4-13.1-51.5c8.7-13.8,29.8-22.7,46.1-18.2
		c0.1,0.1,0.2,0.2,0.4,0.3c5.6,2.3,11,6.8,15.5,12c0.2,0.4,0.4,0.7,0.6,1.1c0.1,0.2,0.3,0.2,0.4,0.1c3.3,4,6.1,8.4,8,12.5
		c4.7,10.1,3.4,21.7-2.6,31C323.9,164.4,298.3,169.7,280.1,159z"/>
	<path class="st0" d="M179.7,249.9c-12.3-11.6-22.5-25.4-28.7-41.1c-3-7.5-6.5-17-6.5-25.3c0-6.5,3-7.3,8.2-9.2
		c3.8-1.4,7.6-2.8,11.4-4.3c0.2,0.6,0.3,1.2,0.5,1.8c0.2,0.7,1.4,1.1,1.6,0.1c0.3-1.5,0.6-2.7,0.8-4.2c0.2-1-1-2.2-2-1.8
		c-5.4,1.7-10.8,3.7-16.1,5.7c-2.9,1.1-6.4,2-7.9,5.1c-1.4,2.8-0.4,6.8,0,9.7c0.8,5.5,2,10.9,3.7,16.2c6,19.3,17.4,36.6,33.4,49.2
		C179.2,252.7,180.8,250.9,179.7,249.9z"/>
	<path class="st0" d="M158.8,225.4c9.5,14,21.5,26.1,36.1,34.8c7,4.1,15.8,9,24,10.3c6.4,1,7.6-1.8,10.4-6.6c2-3.5,3.9-7.1,6.1-10.5
		c-0.6-0.2-1.2-0.5-1.7-0.7c-0.7-0.3-0.8-1.6,0.1-1.6c1.5-0.1,2.8-0.1,4.3-0.1c1,0,2,1.3,1.5,2.3c-2.5,5.1-5.4,10.1-8.2,15
		c-1.5,2.7-3,6-6.2,7c-3,0.9-6.8-0.7-9.6-1.5c-5.3-1.6-10.5-3.7-15.5-6.2c-18.2-9-33.5-22.9-43.3-40.7
		C155.9,225.5,158,224.2,158.8,225.4z"/>
	<path class="st0" d="M284.9,53.6c-9.1-3.7-19.8-9.8-29.8-10.4c-9.5-0.6-20.4,4.3-29.2,7.3c-22.8,7.7-44.7,18.1-65.2,30.8
		c-9.5,5.9-18.7,12.3-27.6,19.2c-5.2,4-10.2,8.1-15.1,12.5c-2,1.8-5,3.9-5.3,6.9c-0.8,8,13.9,9.6,19,10.7
		c12.7,2.9,25.5,5.8,38.2,8.6c2.5,0.6,3.8-3.2,1.3-3.7c-10.2-2.3-20.4-4.6-30.6-6.9c-4.6-1-9.3-2-13.9-3.2c-1.6-0.4-4.8-0.8-6.1-1.9
		c-5.4-4.6-1.1-6.7,1.7-9.1c15.6-13.5,32.5-25.5,50.5-35.7c17-9.7,35-17.8,53.5-24.1c8.7-3,20.6-8.5,30-7.1c8.4,1.3,17,5.7,25,8.9
		c-1.3,2.1-3.1,5-2.7,4.5c-0.2,0.2,0.1,0.6,0.3,0.4c-0.8,0.8,6-4.1,6.4-4.4C286.7,55.9,286.2,54.1,284.9,53.6z"/>
	<path class="st0" d="M368.7,151.7c2.2,9.6,6.6,21.1,5.7,31.1c-0.9,9.5-7.4,19.5-11.8,27.7c-11.2,21.3-24.8,41.4-40.6,59.6
		c-7.3,8.5-15.1,16.6-23.2,24.2c-4.8,4.5-9.6,8.8-14.7,12.9c-2.1,1.7-4.7,4.3-7.6,4.1c-8-0.4-7.3-15.2-7.6-20.5
		c-0.9-13-1.7-26.1-2.6-39.1c-0.2-2.5,3.7-3.2,3.9-0.7c0.7,10.4,1.4,20.9,2,31.3c0.3,4.7,0.5,9.5,1,14.2c0.2,1.6,0,4.8,0.9,6.3
		c3.7,6.1,6.4,2.1,9.2-0.2c15.8-13.3,30.3-28.1,43.2-44.3c12.2-15.3,23-31.8,32.2-49.1c4.3-8.1,11.6-19,11.7-28.6
		c0.1-8.5-3-17.7-4.9-26.1c-2.3,1-5.4,2.3-4.9,2c-0.3,0.2-0.6-0.2-0.3-0.4c-0.9,0.6,4.9-5.3,5.3-5.7
		C366.7,149.6,368.4,150.4,368.7,151.7z"/>
	<path class="st0" d="M324.5,149c9.8-9.5,12-25.8,5.3-37.6c-5.3-9.4-15-14.6-25.1-14.9c-12.9-0.9-26,4.9-32.4,16.5
		c-8,14.4-2,30,10,40C294.1,162.8,314.1,159.1,324.5,149z M306.8,154.8c-9.9,2.1-18.7,0.4-25.8-7.2c-6.1-6.5-10.5-14.5-9.5-23.7
		c1.5-13.3,11.3-20.8,22.7-24.1c13.8-3.5,29.9,3,34.9,17C335.3,134.1,324,151.2,306.8,154.8z"/>
	<path class="st0" d="M330.6,119.4c-8.1-1.4-17.3-0.9-25.6-0.3c-0.4,0-0.3,0.5,0,0.6c8.1,1.6,17.4,2.9,25.7,2.3
		C332.3,121.8,332,119.6,330.6,119.4z"/>
	<path class="st0" d="M330.3,129.4c-5.3,0.4-10.5-1.6-15.8-0.9c-0.4,0-0.5,0.7-0.1,0.8c3,0.8,6,1.4,8.9,2.1c2.4,0.6,4.9,1.1,7.4,0.8
		C332.7,132,332.1,129.3,330.3,129.4z"/>
	<path class="st0" d="M301.4,128.8c-0.1-0.1-0.2,0-0.1,0.1C301.4,128.9,301.5,128.8,301.4,128.8z"/>
	<path class="st0" d="M301.2,129.2c-10-1.6-20-3.9-30.1-4.9c-1.8-0.2-2.5,2.7-0.7,3.1c9.9,2.5,20.5,2.9,30.7,2.7
		C301.7,130.1,301.8,129.3,301.2,129.2z"/>
	<path class="st0" d="M283.5,117.9c-1.1-1.3-3.5-1.5-5-1.8c-2-0.4-4.1-0.7-6.1-0.6c-1.9,0.1-1.8,2.9,0.1,2.7
		c2.1-0.2,4.1-0.4,6.2-0.3C280.1,117.9,282,118.5,283.5,117.9C283.5,118,283.5,118,283.5,117.9z"/>
	<path class="st0" d="M443.4,6.8c-5.2-2-10.6-3.7-16.1-4.3c-0.5-0.1-0.6,0.6-0.2,0.8c0,0,0,0,0,0c5.5,1.5,10.9,3,16.1,5.2
		C443.3,7.9,443.3,7.4,443.4,6.8z"/>
	<path class="st0" d="M443.3,9.7c-7.2-2.8-14.5-5-22-6.7c-0.6,0.2-1.2,0.4-1.8,0.5c0.1,0.1,0.2,0.2,0.3,0.3
		c8.1,1.8,15.9,4.5,23.5,7.7C443.3,10.9,443.2,10.3,443.3,9.7z"/>
	<path class="st0" d="M439.9,11.1c-6.8-3.2-14.2-5.5-21.5-7.2c-0.5,0.1-1.1,0.3-1.6,0.4c7.8,2.1,15.2,5,22.7,8.2
		C440.3,12.9,440.7,11.5,439.9,11.1z"/>
	<path class="st0" d="M438.8,14.1c-8.1-3.7-16.4-6.7-24.9-9.1c-0.8,0.2-1.5,0.3-2.3,0.5c9.1,2.7,18,6,26.7,10.1
		C439.2,16,439.7,14.5,438.8,14.1z"/>
	<path class="st0" d="M439.2,18.4c-11.6-4.6-23.4-8.4-35.5-11.5c-0.8,0.2-1.7,0.3-2.5,0.5c12.8,3.4,25.2,7.5,37.5,12.5
		C439.6,20.3,440.1,18.8,439.2,18.4z"/>
	<path class="st0" d="M440.1,22.3c-14-5.9-28.5-10.5-43.3-14c-0.3,0.1-0.7,0.2-1,0.2c15,3.8,29.6,8.9,43.8,15.3
		C440.6,24.3,441.1,22.7,440.1,22.3z"/>
	<path class="st0" d="M437.7,23.9c-15.3-5.9-31-10.4-47-13.8c-0.5,0.3-1.1,0.5-1.7,0.7c16.4,3.7,32.4,8.7,48.2,14.8
		C438.2,26,438.8,24.3,437.7,23.9z"/>
	<path class="st0" d="M436.2,26.4c-16.8-6.8-34.3-11.6-52.2-14.6c-0.6,0.2-1.2,0.4-1.8,0.6c18.4,3.2,36.2,8.4,53.4,15.7
		C436.7,28.5,437.3,26.8,436.2,26.4z"/>
	<path class="st0" d="M438,32c-19.7-7.3-39.8-13.3-60.3-17.8c-0.6,0.3-1.2,0.6-1.8,0.8c20.9,4.8,41.4,11,61.4,18.8
		C438.5,34.3,439.2,32.5,438,32z"/>
	<path class="st0" d="M430.3,36.4C411.9,27.8,392.1,20.9,372,17c-0.5,0.3-1.1,0.6-1.6,0.8c-0.2,0.1-0.3,0.1-0.5,0.2
		c20.5,5.4,40.3,11.8,59.7,20.6C430.9,39.2,431.7,37,430.3,36.4z"/>
	<path class="st0" d="M433.5,42.8c-22.2-10.2-45.5-17.6-69.4-22.2c-0.5,0.2-1.1,0.4-1.6,0.7c24.3,5,47.9,12.8,70.3,23.5
		C434,45.4,434.8,43.4,433.5,42.8z"/>
	<path class="st0" d="M431.6,50.4c0.2-0.3,0.5-0.6,0.8-0.9c-0.1-0.2-0.2-0.5-0.5-0.6c-23.8-11.1-49.3-20.2-75.1-25.6
		c-0.6,0.2-1.1,0.4-1.7,0.5c26.5,6,51,16.7,76.2,26.8c0.1,0,0.1,0,0.2,0C431.5,50.6,431.5,50.5,431.6,50.4z"/>
	<path class="st0" d="M430.4,52.2c-27-11-54.7-20.9-83.5-26c-0.6,0.2-1.2,0.3-1.7,0.5c29.2,5.2,56.7,16.1,84.1,27.3
		C429.7,53.4,430,52.8,430.4,52.2z"/>
	<path class="st0" d="M427.8,56.5c-29.6-12-59.7-23.2-91.5-27.3c-0.5,0.2-1.1,0.3-1.6,0.5c32,4.6,62.3,16.3,92,28.7
		C427.1,57.8,427.4,57.2,427.8,56.5z"/>
	<path class="st0" d="M425.2,61.3c-29.8-12.9-60.4-24.2-92.1-30.9c0.2,0.5,0.4,1,0.6,1.5c31.3,7.1,61,19,90.5,31.6
		C424.5,62.8,424.9,62,425.2,61.3z"/>
	<path class="st0" d="M422.9,66C395,54.1,366,43.6,336.1,38.4c0.2,0.5,0.3,1,0.5,1.6c29.7,5.6,57.4,17,85.4,28.2
		C422.3,67.4,422.6,66.7,422.9,66z"/>
	<path class="st0" d="M422,67.9c-27-10.5-54.9-19.7-83.5-24.1c-1-0.1-1.1,1.4-0.1,1.5C367.1,50,394,60,421.1,69.9
		C421.4,69.3,421.7,68.6,422,67.9z"/>
	<path class="st0" d="M419.5,73.5C419.5,73.5,419.5,73.5,419.5,73.5c-25.9-10.7-53.1-18.7-80.5-24.6c0.1,0.3,0.3,0.6,0.4,0.9
		c0.2,0.3,0.4,0.7,0.5,1c26.9,6.1,52.9,14.5,78.6,24.6C418.8,74.7,419.1,74.1,419.5,73.5z"/>
	<path class="st0" d="M417.8,76.8c-24.7-9.5-50.2-16.8-76-22.6c0.3,0.5,0.6,1.1,0.9,1.6c25.3,6,49.9,13.8,74.2,22.8
		C417.2,78,417.5,77.4,417.8,76.8z"/>
	<path class="st0" d="M415.1,82.6c-22.4-9.6-46-16.8-69.6-22.6c0.4,0.6,0.9,1.3,1.3,1.9c23,5.9,45.1,13.8,67.1,22.5
		C414.3,83.8,414.7,83.2,415.1,82.6z"/>
	<path class="st0" d="M412.6,86.4c0.1-0.5,0-1-0.6-1.2c-20.3-8-41.4-14.4-62.5-19.8c0.5,0.6,1,1.2,1.5,1.8
		c20.5,5.6,40.5,12.5,60.4,19.9c0.4,0.1,0.7,0,0.9-0.1C412.4,86.7,412.5,86.6,412.6,86.4z"/>
	<path class="st0" d="M358.5,75.1c16.1,4.4,31.8,9.6,47.5,15.3c1.1,0.4,1.7-1.3,0.6-1.8c-16.3-6.2-33.1-11.2-50-15.4
		C357.2,73.9,357.8,74.5,358.5,75.1z"/>
	<path class="st0" d="M408.2,92.8c-14.7-5.1-29.9-9.4-45-13.2c0.8,0.8,1.6,1.5,2.5,2.3c13.9,3.8,27.7,8.1,41.5,12.4
		C407.5,93.9,407.9,93.4,408.2,92.8z"/>
	<path class="st0" d="M370.7,86.8c11.1,3.4,22,7.2,32.9,11c1.2,0.4,1.9-1.4,0.7-1.9c-11.9-4.5-24.1-8.3-36.3-11.7
		C368.9,85,369.8,85.9,370.7,86.8z"/>
	<path class="st0" d="M403.7,99.6c-9.3-3-18.8-5.6-28.3-8.1c0.7,0.7,1.4,1.4,2.1,2c8.4,2.5,16.8,5.1,25.2,7.7
		C403.1,100.7,403.4,100.1,403.7,99.6z"/>
	<path class="st0" d="M401.4,103.6c-6.6-2.4-13.4-4.6-20.2-6.7c1,0.9,2.1,1.9,3.2,2.8c5.5,1.8,11,3.8,16.4,5.7
		C400.9,104.8,401.1,104.2,401.4,103.6z"/>
	<path class="st0" d="M167.5,175.5c-3.2-1.1-6.6-1.8-10-2.2c-1.7-0.2-5.6-1.4-6.9,0.1c-0.2,0.2-0.1,0.5,0,0.7c0,0.1,0.1,0.1,0.1,0.2
		c0.1,0.1,0.3,0.2,0.5,0.2c0.1,0,0.1,0,0.2,0c0.2,0,0.3-0.2,0.3-0.4c0,0,0,0,0,0c0.4,0.1,0.8,0.2,0.8,0.2c0.7,0.1,1.5,0.2,2.2,0.2
		c1.3,0.2,2.6,0.4,3.9,0.6c2.8,0.5,5.5,1.4,8.2,2.2C168,177.5,168.6,175.9,167.5,175.5z"/>
	<path class="st0" d="M167.8,179.4c-8.1-2.5-16.6-3.6-25-4c-0.7,0-0.8,1.1-0.1,1.1c8.4,0.5,16.5,2.3,24.6,4.5
		C168.3,181.2,168.8,179.7,167.8,179.4z"/>
	<path class="st0" d="M168.4,183.4c-8.8-3.2-18.5-4.5-27.8-4.8c-0.5,0-0.6,0.8-0.1,0.8c9.5,0.6,18.4,2.7,27.4,5.4
		C168.8,184.9,169.2,183.7,168.4,183.4z"/>
	<path class="st0" d="M171.4,188.5c-8.3-4.7-18.9-6.7-28.4-7.5c-1.1-0.1-1.2,1.6-0.1,1.7c0.6,0.2,1.2,0.5,1.9,0.7
		c0.2,0.2,0.6-0.1,0.6-0.3c8.8,1.5,16.7,4.4,25.2,7.1C171.5,190.5,172.4,189.1,171.4,188.5z"/>
	<path class="st0" d="M173,193.5c-0.7-3.3-8.2-3.5-10.8-4.2c-6.2-1.6-12.5-3.3-18.8-4.6c-0.9-0.2-1.1,1.4-0.3,1.5
		c4.5,1.5,9.1,2.7,13.7,3.9c1.5,0.4,13.6,2.7,13.8,3.8C171,195.4,173.3,195,173,193.5z"/>
	<path class="st0" d="M173.3,197.8c-9-2.7-18.4-5.3-27.8-6.2c-0.5-0.1-0.8,0.8-0.2,1c9.2,2.3,18.3,4.1,27.3,7
		C173.8,199.9,174.4,198.1,173.3,197.8z"/>
	<path class="st0" d="M175.8,202.5c-9.6-3.3-19.9-5.4-29.9-6.5c-0.7-0.1-0.8,1-0.1,1.1c10,1.8,19.6,4.4,29.4,7.3
		C176.4,204.8,177,202.9,175.8,202.5z"/>
	<path class="st0" d="M179.8,207.5C179.8,207.5,179.8,207.5,179.8,207.5c-11.2-3.6-23-6.8-34.7-8.6c-1-0.1-1.5,0.9-1.2,1.7
		c0.3,0.8,0.4,1,1.2,1.3c0.7,0.3,1.3,0.1,1.5-0.4c11.1,1.6,21.9,5,32.9,7.1C180.3,208.8,180.4,207.8,179.8,207.5z"/>
	<path class="st0" d="M187.6,214c-12.3-3.6-24.8-6.7-37.3-9.6c-1.3-0.3-1.9,1.6-0.7,1.9c12.6,2.7,25.2,5.5,37.7,8.3
		C187.8,214.6,188,214.1,187.6,214z"/>
	<path class="st0" d="M190.8,220.1c-7.6-2.7-15.5-4.7-23.2-6.9c-6.2-1.8-12.4-4-18.8-4.7c-1.4-0.2-1.6,2.1-0.2,2.2
		c14.3,1.1,28.1,7.1,42.2,9.8C190.9,220.4,191,220.1,190.8,220.1z"/>
	<path class="st0" d="M194.6,224.1c-14.5-4.7-29.7-8.2-44.6-11.2c0.2,0.8,0.4,1.6,0.7,2.4c14.6,3.1,29.2,6.5,43.9,9.3
		C194.8,224.7,194.9,224.2,194.6,224.1z"/>
	<path class="st0" d="M200.9,228.4c-15.5-3.8-31.2-7.1-47-9.4c-1.6-0.2-1.7,2.2-0.2,2.5c15.7,2.7,31.3,5.2,46.9,8.3
		C201.4,230,201.7,228.6,200.9,228.4z"/>
	<path class="st0" d="M204.9,233.1c-14.6-2.8-29.4-5.1-44.1-7.6c-1.5-0.3-1.7,2.2-0.2,2.4c14.7,2.2,29.4,4.6,44.2,6.5
		C205.6,234.5,205.7,233.3,204.9,233.1z"/>
	<path class="st0" d="M209.3,236.1c-14.8,0.9-29-3.6-43.6-5.3c-1.6-0.2-1.8,2.3-0.2,2.5c1.7,0.2,3.5,0.5,5.2,0.7c0.1,0,0.2,0,0.3,0
		c12.8,1.8,25.5,4.8,38.6,3.7C210.6,237.6,210.3,236.1,209.3,236.1z"/>
	<path class="st0" d="M219.5,242.1c-15.7-1.7-31.2-4.9-46.9-6.5c-1.4-0.2-1.5,1.9-0.2,2.2c15.4,2.9,31.3,4.4,46.9,5.6
		C220.2,243.4,220.3,242.2,219.5,242.1z"/>
	<path class="st0" d="M223.5,246.2c-17-1.6-33.9-3.4-50.8-5.2c-0.2-0.2-0.5-0.4-0.9-0.3l-1.6,0.1c-1.4,0.1-1.2,2.2,0.1,2.3
		c17.7,1.4,35.4,2.8,53.1,4.5C224.3,247.7,224.4,246.3,223.5,246.2z"/>
	<path class="st0" d="M231.6,249.7c-18.5-1-37-2.3-55.5-4.4c-1.6-0.3-1.8,2.4-0.2,2.5c18.5,1.5,37.1,2.7,55.6,2.8
		C232.1,250.6,232.2,249.7,231.6,249.7z"/>
	<path class="st0" d="M234.4,252.3c-18.5,1.1-37-1.5-55.4-2.6c-1.6-0.1-1.8,2.4-0.2,2.5c18.4,1.1,37.4,2.9,55.8,1.3
		C235.3,253.4,235.1,252.3,234.4,252.3z"/>
	<path class="st0" d="M234.6,254.7c-16.8-0.4-33.9-0.8-50.7-0.6c-1.5,0-1.7,2.3-0.2,2.4c16.8,0.7,34.1,0.2,50.9-0.9
		C235.1,255.6,235.1,254.7,234.6,254.7z"/>
	<path class="st0" d="M233.5,259.2c-13.5,1.8-27.1,0.9-40.6,1.5c1,0.7,1.9,1.5,2.8,2.3c12.7-0.5,25.7,0,38.1-2.7
		C233.6,259.9,233.6,259.5,233.5,259.2z"/>
	<path class="st0" d="M231.7,263.6c-5.6,0.9-11.2,1.2-16.8,1.4c-3.7,0.2-9.7-0.7-12.8,1.5c-0.7,0.5-0.5,1.5,0.1,1.9
		c0.1,0,0.1,0.1,0.2,0.1c0.6,0.4,1.3,0.2,1.7-0.3c0,0,0,0,0.1-0.1c2.1-0.8,5.3-0.7,7.3-0.9c2.9-0.3,5.9-0.5,8.8-0.7
		c3.6-0.3,7.2-0.8,10.7-1.6C231.1,264.5,231.4,264,231.7,263.6z"/>
	<path class="st0" d="M229.9,266.8c-4.2,0.6-8.4,0.9-12.7,0.9c-1.4,0-1.3,2.1,0.1,1.9c4.1-0.4,8.1-0.9,12.1-1.7
		C229.6,267.6,229.8,267.2,229.9,266.8z"/>
	<path class="st0" d="M267.5,48.7c0.4-0.5-0.4-1.2-0.9-0.8c-0.5,0.6-1,1.1-1.6,1.7c-0.1,0.1,0,0.4,0.2,0.3c-4.7,2.4-9.5,7.9-14,11.3
		c-5.4,4-11,7.7-16.7,11.2C223.9,79,213.1,85.1,202.7,92c-22,14.6-42.8,29.7-68.9,36c-1,0.2-0.7,1.7,0.3,1.5
		c25.4-3.4,46.6-19.5,67.3-33.3C223.7,81.2,249.6,69.4,267.5,48.7z"/>
	<path class="st0" d="M277.8,53c-4.5-0.4-9.3-0.6-13.8-0.4c0-0.1-0.2-0.2-0.4-0.2c-0.5,0.1-1,0.1-1.5,0.2c-0.8,0-0.9,1.2-0.1,1.3
		c5.2,0.4,10.5,0.7,15.7,0.9C278.8,54.9,279,53.1,277.8,53z"/>
	<path class="st0" d="M281.8,57.2c0.5-0.6,0.4-1.7-0.6-1.7c-8-0.2-16.1,0.1-24.1,0.3c-0.8,0-0.9,1.2-0.1,1.2
		c7.4,0,14.9,0.3,22.3,0.4c0.1,0.4,0.5,0.6,0.9,0.6C281.1,57.8,281.2,57.7,281.8,57.2z"/>
	<path class="st0" d="M276.8,61c0-0.1,0-0.1,0.1-0.2c0.1-0.5-0.1-0.9-0.5-1.1c-1.4-0.7-3.3-0.3-4.8-0.3c-2.3,0-4.6,0-6.9,0
		c-4.2,0.1-8.4,0.3-12.6,0.6c-0.5,0-0.5,0.9,0,0.9c3.9-0.1,7.8-0.2,11.8-0.2c1.8,0,3.7,0.1,5.5,0.1c0.9,0,1.8,0.1,2.8,0.1
		c1.9,0.1,1.6-0.1,3.4-0.9c-0.8,0.4-0.4,1.6,0.5,1.5l0.2,0C276.4,61.5,276.7,61.2,276.8,61z"/>
	<path class="st0" d="M271.8,62.6c-8.1-0.2-16.3,0.5-24.3,1.6c-0.6,0.1-0.4,1,0.2,1c8-0.8,15.9-0.9,24-0.8
		C272.8,64.4,272.9,62.7,271.8,62.6z"/>
	<path class="st0" d="M264.9,66.1c-7.3,0.4-14.6,0.9-21.9,1.4c-0.8,0.1-0.6,1.3,0.2,1.2c6.8-0.4,13.6-0.7,20.4-0.9
		c0.1,0.1,0.3,0.2,0.6,0.1c0.3-0.1,0.7-0.1,1-0.2C266.2,67.5,265.9,66,264.9,66.1z"/>
	<path class="st0" d="M259.9,70.1c-6.8,0.4-13.5,0.9-20.3,1.6c-0.7,0.1-0.5,1.1,0.2,1.1c6.3-0.5,12.5-0.8,18.8-0.9
		c0.1,0.1,0.3,0.2,0.6,0.1c0.3-0.1,0.7-0.1,1-0.2C261.3,71.5,260.9,70,259.9,70.1z"/>
	<path class="st0" d="M253,74.6c-6.9,0.2-13.8,0.6-20.7,1.1c-0.7,0.1-0.5,1.1,0.2,1.1c6.8-0.3,13.6-0.5,20.4-0.6
		C253.9,76.2,254.1,74.6,253,74.6z"/>
	<path class="st0" d="M247.8,79.4c-7.5,0-15,0-22.5,0c-0.8,0-0.9,1.2-0.1,1.3c7.5,0.1,15,0.2,22.5,0.3
		C248.7,81,248.8,79.4,247.8,79.4z"/>
	<path class="st0" d="M241.8,83.5c-7.8-0.3-15.5-0.3-23.3,0c-0.7,0-0.8,1.2-0.1,1.1c7.8-0.2,15.5-0.1,23.3,0.4
		C242.7,85.1,242.8,83.5,241.8,83.5z"/>
	<path class="st0" d="M233.4,88.4c-6.7-0.7-13.5-0.7-20.2-0.3c-0.6,0-0.4,1,0.2,0.9c6.7-0.4,13.3-0.2,19.9,0.6
		C234.1,89.8,234.2,88.5,233.4,88.4z"/>
	<path class="st0" d="M230,91.9c-8.1-0.1-16.3,0-24.4,0.3c-0.8,0-0.9,1.3-0.1,1.3c8.1-0.2,16.3-0.2,24.4,0.1
		C231,93.6,231.1,91.9,230,91.9z"/>
	<path class="st0" d="M223.1,96c-7.4-1.1-15.2-0.7-22.6,0.1c-0.6,0.1-0.4,1,0.2,1c7.5-0.7,14.8-0.3,22.3,0.2
		C223.8,97.4,223.9,96.2,223.1,96z"/>
	<path class="st0" d="M217.1,100.7c-8.4-0.1-16.8,0.5-25.2,1c-0.6,0-0.6,1.2,0.1,1.1c8.3-0.4,16.7-0.4,25-0.7
		C217.9,102,218,100.7,217.1,100.7z"/>
	<path class="st0" d="M210.7,103.9c-8.7,0.1-18,0.1-26.6,1.4c-0.5,0.1-0.5,0.9,0,0.9c8.7,0.7,17.9,0.1,26.6-0.5
		C211.8,105.6,211.7,103.9,210.7,103.9z"/>
	<path class="st0" d="M207,106.7c-8.4,0.2-16.7,0.6-25,1.2c-0.2,0-0.2,0.4,0,0.4c8.3-0.3,16.6-0.4,24.9-0.2
		C207.8,108.1,207.9,106.6,207,106.7z"/>
	<path class="st0" d="M204.6,109.6c-9.5-0.2-19,0.1-28.5,0.8c-0.5,0-0.4,0.8,0.1,0.8c9.4-0.6,18.8-0.6,28.2,0
		C205.5,111.3,205.7,109.6,204.6,109.6z"/>
	<path class="st0" d="M200.1,113.2c-9-0.8-18.1-0.5-27,0.3c-0.5,0-0.3,0.7,0.1,0.7c9-0.5,17.8,0,26.8,0.6
		C201,114.8,201.1,113.3,200.1,113.2z"/>
	<path class="st0" d="M195.1,116.8c-9.6-1.2-19.5-1.2-29.2-0.8c-0.8,0-0.9,1.3-0.1,1.2c9.8-0.3,19.4,0.4,29.2,1.2
		C196,118.5,196.1,116.9,195.1,116.8z"/>
	<path class="st0" d="M189.7,120.1c-1.3-0.9-3.6-0.7-5.2-0.8c-2.7-0.2-5.5-0.4-8.2-0.5c-5.3-0.2-10.5,0-15.8,0.3
		c-0.6,0-0.6,1.1,0.1,1.1c4.7-0.2,9.4-0.3,14.2-0.1c2.2,0.1,4.5,0.2,6.7,0.4c2,0.2,5.1,0,7,0.7c0,0,0,0,0,0c0,0,0.1,0.1,0.1,0.1
		c0.3,0.3,0.8,0.3,1.1,0.1c0,0,0.1-0.1,0.1-0.1C190.2,121.1,190.1,120.4,189.7,120.1z"/>
	<path class="st0" d="M185.1,122.8c-11-0.8-22-1-33.1-0.9c-0.8,0-0.9,1.2-0.1,1.2c11,0,22,0.5,33,1.2
		C186,124.5,186.2,122.9,185.1,122.8z"/>
	<path class="st0" d="M183.2,126.3c-12.7-1.4-25.4-1.7-38.2-1.1c-0.4,0-0.3,0.6,0,0.6c12.7-0.3,25.4,0.5,38,2.2
		C184.1,128.1,184.3,126.4,183.2,126.3z"/>
	<path class="st0" d="M182.7,129.1c-14.3,0-28.6,0-42.8,1c-0.3,0-0.3,0.6,0,0.6c14.2,0.3,28.4,0,42.7,0.3
		C183.8,130.9,183.9,129.1,182.7,129.1z"/>
	<path class="st0" d="M174.2,132.7c-7.4,0-14.8,0-22.3,0c-0.6,0-0.7,1-0.1,1c7.4,0.2,14.8,0.3,22.2,0.5
		C175.1,134.3,175.2,132.7,174.2,132.7z"/>
	<path class="st0" d="M332.4,232.7c8.6-10,16.8-20.6,23.8-31.8c3-4.7,5.7-9.6,8.1-14.6c2-4.3,6.4-11.7,6-16.5c0,0.2,0.4,0.2,0.4,0
		c0.1-0.7,0.2-1.5,0.3-2.2c0.1-0.5-0.7-0.6-0.8-0.2c-7.9,24.2-23.5,44.8-39.9,63.9c-17.6,20.4-37.8,37.6-59.4,53.6
		c-1.1,0.9,0.3,2.4,1.4,1.7C294.8,271.8,314.9,253,332.4,232.7z"/>
	<path class="st0" d="M373,178c-0.9-0.4-2.1-0.4-3.1-0.4c-0.8,0-2.1-0.2-2.7,0.3c-0.4,0.3-0.2,0.9,0.2,1.1c0.4,0.2,0.8,0.1,1.2,0.1
		c0.5,0,0.9,0.1,1.4,0.1c0.9,0.1,1.9,0.4,2.8,0.3C373.5,179.6,373.9,178.4,373,178z"/>
	<path class="st0" d="M374.2,179.9c-2.5-0.1-5.1,0.3-7.7,0.4c-0.7,0-0.6,1.2,0.1,1.2c2.5,0,5.2,0.2,7.7-0.1
		C375.2,181.4,375.1,180,374.2,179.9z"/>
	<path class="st0" d="M372.1,182.4c-2.6,0-5.2,0.2-7.8,0.6c-0.6,0.1-0.5,1.1,0.2,1c2.5-0.3,5-0.4,7.5-0.1
		C372.9,183.9,373,182.4,372.1,182.4z"/>
	<path class="st0" d="M372,185.7c-3.2-0.7-6.5-0.7-9.7-0.2c-0.8,0.1-0.5,1.3,0.2,1.2c3.1-0.4,6.2-0.2,9.2,0.5
		C372.7,187.4,373.1,185.9,372,185.7z"/>
	<path class="st0" d="M370.2,188.5c-3.1-0.5-6.5-0.3-9.6,0.2c-0.8,0.1-0.6,1.3,0.2,1.2c3.1-0.4,6.1-0.2,9.2,0
		C371,189.9,371,188.6,370.2,188.5z"/>
	<path class="st0" d="M368.2,191.3c-2.7,0.1-5.3,0.3-8,0.4c-0.6,0-0.6,1.1,0.1,1.1c2.7-0.1,5.3-0.1,8-0.2
		C369.2,192.6,369.1,191.2,368.2,191.3z"/>
	<path class="st0" d="M366.1,194.7c-2.6-0.8-5.5-0.5-8.1,0.1c-0.9,0.2-0.7,1.6,0.3,1.4c2.6-0.5,4.9-0.2,7.5,0.1
		C366.7,196.4,367,195,366.1,194.7z"/>
	<path class="st0" d="M364.4,198.7c-3.1-0.5-6.4-0.2-9.5,0.6c-0.9,0.2-0.6,1.6,0.3,1.4c3-0.7,6-0.8,9.1-0.6
		C365.3,200.2,365.3,198.9,364.4,198.7z"/>
	<path class="st0" d="M361.5,202.9c-2.9-0.5-5.8-0.4-8.7,0.2c-0.9,0.2-0.7,1.6,0.3,1.5c2.8-0.5,5.5-0.5,8.3-0.2
		C362.4,204.5,362.5,203.1,361.5,202.9z"/>
	<path class="st0" d="M360.7,207.8c-3.8-0.1-7.6-0.1-11.5-0.2c-0.8,0-0.9,1.3-0.1,1.3c3.8,0.1,7.6,0.2,11.5,0.3
		C361.4,209.2,361.5,207.9,360.7,207.8z"/>
	<path class="st0" d="M357.7,213.2c-3.9-0.9-8-1-12-0.7c-0.9,0.1-0.6,1.4,0.2,1.4c3.9-0.2,7.6,0.2,11.4,0.8
		C358.3,214.8,358.6,213.4,357.7,213.2z"/>
	<path class="st0" d="M355.8,217.3c-4.4-0.4-8.9-0.1-13.3,0.2c-1,0.1-0.7,1.5,0.3,1.5c4.3-0.3,8.6-0.1,12.9-0.2
		C356.6,218.8,356.8,217.4,355.8,217.3z"/>
	<path class="st0" d="M354.5,221.1c-4.7-1-10-0.5-14.8-0.3c-0.9,0-1,1.4-0.1,1.4c2.6-0.1,5.2-0.1,7.7-0.1c2.3,0,4.7,0.3,7.1,0.1
		C355,222.1,355.1,221.2,354.5,221.1z"/>
	<path class="st0" d="M350.9,225.1c-3.8-0.1-7.5-0.3-11.3-0.4c-0.9,0-1.1,1.4-0.1,1.4c3.8,0.1,7.5,0.3,11.3,0.4
		C351.7,226.6,351.8,225.1,350.9,225.1z"/>
	<path class="st0" d="M348.4,230.1c-5.2-0.8-10.9-0.1-16.1-0.1c-0.9,0-1,1.4-0.1,1.4c5.3,0,11,0.6,16.3-0.3
		C349.1,231,349,230.2,348.4,230.1z"/>
	<path class="st0" d="M346.4,233.4c-2.2-1.2-5.3-0.5-7.7-0.3c-1.7,0.1-3.4,0.2-5.1,0.3c-1.4,0.1-2.9,0-4.2,0.5
		c-0.2,0.1-0.4,0.4-0.3,0.6c0,0.1,0,0.1,0.1,0.2c0.1,0.2,0.2,0.4,0.5,0.4c0.1,0,0.1,0,0.2,0c0.4,0.1,0.6-0.5,0.4-0.7
		c0.7,0.8,2.7,0.4,3.6,0.4c1.4,0,2.8-0.1,4.2-0.1c1.6,0,4.1-0.5,6.1-0.2c-0.1,0.5,0.3,1.1,1,0.9c0.4-0.1,0.8-0.2,1.2-0.3
		C346.7,234.9,347.2,233.9,346.4,233.4z"/>
	<path class="st0" d="M342.9,236.9c-5.3,0.1-10.6,0.4-15.8,1.1c-0.5,0.1-0.3,0.8,0.1,0.7c5.2-0.5,10.4-0.7,15.6-0.5
		C343.7,238.2,343.7,236.9,342.9,236.9z"/>
	<path class="st0" d="M339.2,241.7c-6.1-0.2-12.1,0-18.2,0.7c-0.7,0.1-0.5,1.1,0.2,1.1c5.6-0.5,11.1-0.5,16.7-0.2
		c0.2,0.3,0.5,0.4,0.9,0.3c0.2-0.1,0.4-0.2,0.7-0.3C340.2,243,340,241.8,339.2,241.7z"/>
	<path class="st0" d="M338.6,245.8c-6.9,0-13.8,0.5-20.6,1.2c-0.7,0.1-0.5,1.2,0.2,1.1c6.8-0.5,13.5-0.6,20.3-0.7
		C339.5,247.5,339.6,245.8,338.6,245.8z"/>
	<path class="st0" d="M333.9,249.6c-6.9-0.1-13.9,0.5-20.8,1.2c-0.8,0.1-0.5,1.2,0.2,1.2c6.8-0.5,13.6-0.6,20.5-0.7
		C334.9,251.3,335,249.7,333.9,249.6z"/>
	<path class="st0" d="M330.6,253.5c-7.8,0.3-15.6,0.8-23.4,0.9c-0.7,0-0.8,1.1-0.1,1.1c7.8,0,15.7,0.1,23.5-0.5
		C331.6,255,331.5,253.5,330.6,253.5z"/>
	<path class="st0" d="M327.4,259.4c-8.4-0.2-16.9-0.4-25.3-0.6c-0.8,0-0.9,1.2-0.1,1.3c8.4,0.3,16.8,0.6,25.3,1
		C328.4,261.1,328.5,259.4,327.4,259.4z"/>
	<path class="st0" d="M322.5,264c-8.1-0.4-16.1-0.1-24.2,0.6c-0.7,0.1-0.5,1,0.2,1c7.6-0.5,15.3-0.5,22.9-0.1c0.1,0,0.1,0,0.2,0
		c0.2,0,0.5,0,0.7,0C323.4,265.5,323.5,264,322.5,264z"/>
	<path class="st0" d="M319,268.5c-8.9,0.5-17.8,0.3-26.7-0.6c-0.9-0.1-1,1.4-0.1,1.4c8.9,0.9,17.9,1.2,26.9,0.8
		C320.3,270.2,320.2,268.5,319,268.5z"/>
	<path class="st0" d="M314.8,272.2c-9.4-0.2-18.7-0.2-28.1,0.1c-0.7,0-0.8,1.1-0.1,1.1c9.4-0.2,18.7,0,28,0.4
		C315.7,273.8,315.8,272.2,314.8,272.2z"/>
	<path class="st0" d="M309.3,277.1c-9.8-1.2-19.8-1.1-29.6-0.3c-0.7,0.1-0.5,1.1,0.2,1.1c9.8-0.6,19.5-0.1,29.3,0.8
		C310.2,278.7,310.3,277.2,309.3,277.1z"/>
	<path class="st0" d="M304.9,280.7c-10.3-0.1-20.6,0-31,0.4c-0.8,0-0.9,1.3-0.1,1.3c10.3-0.3,20.6-0.3,30.9,0
		C305.8,282.4,306,280.7,304.9,280.7z"/>
	<path class="st0" d="M305.5,283.2c-12,0.1-24,0.8-36,1.2c-1,0-1.1,1.6-0.1,1.5c12-0.4,24.1-0.4,36.2-1.2
		C306.5,284.8,306.4,283.2,305.5,283.2z"/>
	<path class="st0" d="M301.9,285.8c-10.6,0.1-21.2,0.6-31.8,1c-1,0-1.2,1.6-0.1,1.6c10.7-0.3,21.4-0.5,32-1.1
		C302.9,287.3,302.8,285.8,301.9,285.8z"/>
	<path class="st0" d="M301.4,288.2c-9.9,0.2-19.7,1-29.6,1c-1.1,0-1.2,1.7-0.1,1.7c9.9,0,20,0.1,29.8-1.1
		C302.3,289.7,302.3,288.2,301.4,288.2z"/>
	<path class="st0" d="M295.4,291.9c-6.9,0.1-13.9,0.6-20.8,1c-0.9,0-0.8,1.5,0.1,1.5c6.9-0.3,13.9-0.4,20.8-0.9
		C296.3,293.3,296.3,291.9,295.4,291.9z"/>
	<path class="st0" d="M292.6,295.5c-6.9,0-13.9,0.4-20.8,0.8c-1.1,0.1-0.8,1.7,0.3,1.6c6.8-0.4,13.6-0.5,20.4-0.8
		C293.4,297,293.6,295.5,292.6,295.5z"/>
	<path class="st0" d="M288.1,299.2c-5-0.1-10.2,0.4-15.2,0.6c-1,0-1.1,1.6-0.1,1.6c5.1-0.2,10.3-0.1,15.4-0.6
		C289.1,300.7,289,299.3,288.1,299.2z"/>
	<path class="st0" d="M282.9,302.7c-2.3,0.4-4.6,0.8-6.9,1.3c-0.6,0.1-0.4,1,0.2,0.9c2.3-0.4,4.6-0.8,7-1.1
		C283.8,303.6,283.6,302.6,282.9,302.7z"/>
	<path class="st0" d="M15,415.6c8.9-11.8,18.7-22.8,29.3-33.1c1.5-1.5-0.6-4-2.1-2.5c-8.9,8.4-17.2,17.4-24.8,26.9
		c10.3-37.3,31-70.9,59.9-96.8c1.1-1,0.6-2.4-0.6-3c-10.8-5.2-26.4-2.2-37.7,0.1c-10.4,2.1-20.5,5.5-30,10
		C21.2,303.4,33.7,289.7,48,278c16.6-13.6,35.6-23.4,54.6-33c1.2-0.6,1.3-2.7-0.2-3.1c-14.9-3.6-30.1-5.2-45.4-4.7
		c19.4-12,40.6-20.3,63.1-24.8c1.6-0.3,1.6-2.4,0.2-3c-8.2-3.7-16.4-7.4-24.6-11.1c11.9-2.1,24-3.2,36.1-3.3c1.7,0,2.7-2.2,1.1-3.2
		c-2.3-1.6-4.5-3.1-6.8-4.7c6.9,1,13.2,4.3,18.6,9c0.8,0.7,1.9-0.6,1.3-1.4c-6.3-8.3-15.9-12-26.2-11.6c-1.8,0.1-2.9,2.3-1.2,3.4
		c2.6,1.7,5.1,3.5,7.7,5.2c-12.2,0.5-24.2,2-36.2,4.5c-1.6,0.3-1.6,2.4-0.2,3c8.3,3.7,16.5,7.4,24.7,11.2
		c-23.1,5.2-44.9,14.5-64.8,27.5c-1.5,1,0,2.9,1.3,2.8c15.4-1,30.6,0.2,45.7,3.4c-17.9,9.1-35.6,18.7-51.2,31.4
		C29,289.2,14.6,305.6,0.4,321.9c-1.1,1.3,0.7,3.3,2.2,2.6c11-6,22.6-10.6,34.9-13.3c10.5-2.3,24.8-5.4,35.5-1.8
		C42.6,337.3,21.2,373.8,11.9,414C11.4,416,13.8,417.3,15,415.6z"/>
	<path class="st0" d="M142.3,372.1c9.6-12.1,19.5-24.2,27.4-37.5c4.9-8.2,7.6-16.4,9.2-25.3c1.2,8,1.6,16,1.3,24.1
		c-0.1,1.5,1.8,2.7,3,1.5c12.3-12.1,20.7-27,24.6-43.6c1.5,2.5,3.1,5.1,4.6,7.6c0.8,1.3,2.8,1.5,3.3-0.2c1.3-4,2.1-8,2.2-12.2
		c0-3.6-2.8-10.7-1.2-13.5c0.9-1.6-1.4-3.2-2.4-1.6c-1.8,2.8-0.7,5.2-0.2,8.3c0.7,4.7,0.4,9.4-0.7,13.9c-1.6-2.7-3.2-5.4-4.8-8.1
		c-1-1.6-3.2-1.2-3.5,0.6c-2.9,16.1-10.2,30.7-21.2,42.7c0.1-10.5-1.1-20.8-3.6-31.1c-0.5-2-3.4-1.9-3.6,0.2
		c-1.4,14.3-4.7,26.2-12.5,38.4c-6.4,9.9-13.6,19.3-20.9,28.6c1.4-14.4,0.2-28.7-3.5-42.8c-0.5-2-3.2-1.9-3.5,0.2
		c-3.8,22.8-18.5,41-33.5,57.8c1.4-14.8,1.1-29.6-1-44.4c-0.2-1.1-1.5-1.8-2.5-1.3c-12.4,6.3-23.1,15.1-33.5,24.2
		c-11.2,9.8-22.2,19.7-33.2,29.7c-1.2,1.1,0.4,3,1.6,1.9c10.7-9,21.3-18.1,31.9-27.3c10.2-9,20.5-17.8,32.6-24.3
		c1.9,15.5,1.9,30.9,0,46.4c-0.2,1.4,1.9,2.6,2.9,1.5c15-16.7,30.3-34.3,36.4-56.1c2.6,13.3,2.9,26.8,0.9,40.3
		C138.7,372.9,141.2,373.4,142.3,372.1z"/>
	<path class="st0" d="M187.4,276.3c2.3-4.4,4.6-8.8,6.7-13.3c0.8-1.6-1.9-2.9-2.8-1.4c-2.5,4.2-4.7,11.3-8.1,14.7
		c-0.3,2.3-1.1,2.7-2.4,1.2c-1.3-0.6-2.2-1.7-2.6-3.2c-2-2.8-3.5-6.2-5.2-9.2c-0.7-1.2-2.4-1.5-3.2-0.3c-2.7,4.1-4.9,8.3-6.2,13
		c-1.3,4.6-1.5,10.4-4.8,14.1c-0.5-5.2-0.9-10.3-1.5-15.5c-0.4-3.6-0.8-6.2-3.7-8.6c-0.8-0.7-2-0.2-2.6,0.5
		c-4.9,6-9.7,12.1-14.3,18.3c-3.7,4.9-7,10.9-11.8,15c2.3-6.2,4.5-12.5,6.5-18.9c0.5-1.6-1.1-3-2.6-2.3c-9,3.8-17.8,7.8-26.7,11.9
		c12.3-11.7,25.6-22.2,40-31.3c1.4-0.9,1.5-2.9-0.2-3.6c-6.8-2.7-13.7-4.4-20.8-5.1c11-4.3,22.2-7.7,33.7-10.2
		c1.6-0.4,2-2.4,0.7-3.4c-7.9-6-16.2-11.3-25.1-15.7c7.7-1.5,15.1-1.3,23.1-0.7c0.7,0.1,1.2-0.7,0.9-1.3c-0.9-2-1.8-4.1-2.7-6.1
		c0,0-0.1,0-0.1,0c0.3,1.7,1.3,4.1-0.2,4.9c-1.2,0.7-8.4-1.1-9.9-1.1c-5.7-0.1-11.3,0.6-16.8,2c-1.8,0.5-1.8,2.6-0.3,3.4
		c9,4.4,17.5,9.4,25.5,15.3c-13.3,3.1-26.2,7.3-38.8,12.7c-1.7,0.7-1.3,3.7,0.7,3.7c8.6-0.1,16.8,1.2,24.9,3.9
		c-16.4,10.8-31.6,23.2-45.2,37.4c-1.4,1.5,0,4.2,2,3.2c10.8-5.1,21.7-10.1,32.6-14.8c-2.2,6.8-4.6,13.5-7.2,20.2
		c-0.6,1.5,1.1,3,2.6,2.3c6.8-3.1,10.5-9.3,14.8-15.2c5.1-7,10.4-13.8,15.9-20.6c1.7,3,1.3,8.2,1.6,11c0.4,4.2,0.8,8.4,1.2,12.5
		c0.1,1.1,1.6,1.9,2.6,1.4c4-2.3,5.9-5.7,7.1-10.1c1.8-6.2,3.1-11.9,6.1-17.5c2,3.8,3.9,8,6.5,11.2c1.1,1.4,2.1,2.6,4,2.4
		C184.9,283,186.2,278.6,187.4,276.3z"/>
</g>
</svg>
