<?xml version="1.0" encoding="utf-8"?>
<!-- Generator: Adobe Illustrator 28.3.0, SVG Export Plug-In . SVG Version: 6.00 Build 0)  -->
<svg version="1.1" xmlns="http://www.w3.org/2000/svg" xmlns:xlink="http://www.w3.org/1999/xlink" x="0px" y="0px"
	 viewBox="0 0 338.8 108.2" style="enable-background:new 0 0 338.8 108.2;" xml:space="preserve">
<style type="text/css">
	.st0{fill:#FFFFFF;}
</style>
<g id="noise">
</g>
<g id="line">
	<g>
		<g>
			<path class="st0" d="M123.9,80.6c-10.7-2.7-21.3-5.8-31.9-8.7c-0.7-0.2-0.9,0.8-0.2,1.1c10.4,3.7,21.1,6.7,31.7,9.6
				C124.7,83,125.2,80.9,123.9,80.6L123.9,80.6z"/>
		</g>
		<g>
			<path class="st0" d="M137.4,77.6C92.1,63.1,46.9,48,0.9,35.9c-1-0.3-1.2,1.2-0.3,1.5C45.5,53,91.5,65.6,137.1,78.8
				C137.9,79,138.1,77.8,137.4,77.6L137.4,77.6z"/>
		</g>
		<g>
			<path class="st0" d="M272.9,40.9c-6.2-2.3-12.4-5.3-18.8-6.9c-0.5-0.1-0.8,0.7-0.3,0.9c5.8,3.1,12.4,5,18.5,7.3
				C273.1,42.7,273.8,41.3,272.9,40.9L272.9,40.9z"/>
		</g>
		<g>
			<path class="st0" d="M278.5,36.3C242.3,24,206.3,11.2,169.7,0c-0.8-0.2-1,0.9-0.3,1.2c35.9,12.9,72.5,24.2,108.8,35.9
				C278.8,37.3,279,36.5,278.5,36.3L278.5,36.3z"/>
		</g>
		<g>
			<path class="st0" d="M234.6,87.8C234.6,87.8,234.5,87.8,234.6,87.8c-0.7,0.5-1.1,1-1.5,1.7c-0.3,0.7-0.8,1.6-0.5,2.3
				c0.1,0.2,0.3,0.3,0.5,0.1c0.6-0.5,0.7-1.4,0.9-2.1C234.2,89.2,234.4,88.5,234.6,87.8z"/>
			<path class="st0" d="M236.7,87.1c0-0.1-0.2-0.3-0.3-0.1c-0.8,0.8-1.2,1.8-1.7,2.7c-0.4,0.7-1.2,1.7-0.7,2.6
				c0.2,0.3,0.5,0.4,0.8,0.2c0.5-0.3,0.7-1.5,0.9-1.9C236.1,89.4,236.6,88.2,236.7,87.1z"/>
			<path class="st0" d="M238.3,87.4c0-0.1-0.1-0.1-0.2-0.1c-0.9,0.8-1.4,2.2-1.9,3.3c-0.3,0.6-0.7,1.7,0.2,1.9c0.1,0,0.2,0,0.3-0.1
				c0,0,0,0,0-0.1c0,0,0,0,0-0.1c0,0,0,0,0,0c0.2-0.1,0.3-0.4,0.4-0.6c0.2-0.5,0.4-1.1,0.6-1.6C238.1,89.2,238.4,88.3,238.3,87.4z"
				/>
			<path class="st0" d="M240.2,88.2c0-0.2-0.2-0.3-0.4-0.1c-1.2,1.2-2.5,3.4-2.3,5.1c0,0.3,0.4,0.3,0.6,0.1c0.6-0.7,0.9-1.6,1.2-2.5
				C239.7,90,240.1,89.1,240.2,88.2z"/>
			<path class="st0" d="M314.8,98.6c-0.3,0.8-0.1,2,0.8,2.2c0.1,0,0.3-0.1,0.3-0.2c0.2-0.7-0.1-1.4-0.4-2
				C315.4,98.3,314.9,98.3,314.8,98.6z"/>
			<path class="st0" d="M317.2,98.4c-0.1,0-0.1,0-0.1,0.1c-0.1,0.8,0.2,1.5,0.8,2c0.1,0.1,0.4,0,0.4-0.2
				C318.3,99.5,318,98.8,317.2,98.4z"/>
			<path class="st0" d="M320.1,98.7c-0.2-0.4-0.3-0.9-0.7-1.1c0,0-0.1,0-0.1,0c-0.6,0.6-0.1,2.3,0.8,2.4c0.1,0,0.2,0,0.2-0.1
				C320.5,99.4,320.3,99.1,320.1,98.7z"/>
			<path class="st0" d="M333.8,92.5c-0.3-0.3-0.5-0.6-0.8-0.8c0.6-0.8,1.1-1.6,1.5-2.5c0.5,0.6,1.5,0.9,2.2,0.7
				c0.1,0,0.2-0.2,0.1-0.3c-0.5-0.5-1.5-1-2.2-0.8c0.1-0.5,0.2-1,0.3-1.5c0,0,0,0,0,0c0,0,0.1,0,0.1,0c0.1,0,0.1,0,0.1-0.1
				c0,0,0.1,0,0.1,0c0.1,0,0.3,0.1,0.4,0.1c0.2,0,0.5,0.1,0.7,0.1c0.4,0.1,0.7,0.2,1.1,0c0.1,0,0.1-0.2,0.1-0.3
				c-0.5-0.5-1.5-0.5-2.2-0.5c-0.2,0-0.4,0-0.5,0.1c0-1.3-0.3-2.8-1.1-4.3c-0.1-0.3-0.5-0.1-0.4,0.2c3.7,11-10.9,12.8-18.2,13.9
				c-8.5,1.3-17.1,1.9-25.7,1.6c-8.1-0.3-16.2-1.3-24.2-3c-1.5-0.3-3.1-0.7-4.6-1.1c-0.1-0.2-0.2-0.5-0.3-0.7
				c-0.2-0.2-0.6-0.3-0.7,0c-0.1,0.1-0.1,0.2-0.2,0.4c-0.6-0.2-1.2-0.3-1.8-0.5c0,0-0.1-0.1-0.1-0.1c-0.1,0-0.1,0-0.1,0
				c-1.6-0.4-3.2-0.9-4.7-1.4c-0.1,0-0.2-0.1-0.3-0.1c0,0-0.1-0.1-0.2-0.1c-3.6-1.2-7.1-2.9-10.8-3.6c-0.4-0.1-0.6,0.5-0.3,0.7
				c0,0,0,0,0,0c-1,1.2-2.4,3.2-1.8,4.8c0.1,0.2,0.4,0.3,0.5,0.1c0.6-0.6,0.7-1.4,0.9-2.2c0.2-0.8,0.4-1.7,0.6-2.5
				c0.4,0.2,0.8,0.5,1.2,0.7c-0.4,0.6-0.6,1.3-0.8,1.9c-0.2,0.8-0.5,1.7,0,2.5c0.1,0.2,0.3,0.2,0.5,0.1c0.5-0.7,0.5-1.5,0.6-2.3
				c0.1-0.6,0.3-1.2,0.3-1.9c0.4,0.2,0.8,0.4,1.2,0.6c-0.8,1.2-1.1,3.2-0.4,4.3c0.1,0.2,0.4,0.1,0.4-0.1c0.3-0.7,0.3-1.5,0.4-2.3
				c0.1-0.5,0.3-1,0.5-1.6c0.6,0.2,1.2,0.5,1.8,0.7c-0.5,1-1.1,2.6-0.5,3.7c0.1,0.2,0.5,0.3,0.6,0c0.2-0.6,0.1-1.2,0.1-1.8
				c0-0.6,0.1-1.2,0.1-1.8c0.6,0.2,1.1,0.4,1.7,0.6c-0.3,0.9-0.1,2.1,0.4,2.6c0.1,0.1,0.3,0.1,0.4-0.1c0.2-0.6,0.2-1.3,0.2-1.9
				c0-0.1,0-0.2,0-0.3c0.4,0.1,0.9,0.3,1.3,0.4c-0.3,1-0.3,2.2,0.1,3.1c0.1,0.2,0.4,0.2,0.5,0c0.2-0.7,0.3-1.4,0.4-2.1
				c0-0.2,0.1-0.5,0.1-0.7c0.7,0.2,1.5,0.4,2.2,0.6c0,0,0.1,0,0.1,0c-0.4,1.3-0.7,3.4,0.7,3.1c0.3-0.1,0.4-0.3,0.2-0.6
				c-0.2-0.4,0-1.3,0-1.7c0-0.2,0-0.4,0-0.5c0.4,0.1,0.8,0.2,1.3,0.3c-0.1,0.3-0.2,0.6-0.2,0.7c-0.1,0.6-0.1,1.3,0.4,1.7
				c0.3,0.3,0.9,0,0.9-0.4c0-0.6-0.1-1.2-0.1-1.8c0,0,0,0,0,0c0.4,0.1,0.9,0.2,1.3,0.4c0,0.9,0.2,1.8,0.7,2.3c0.1,0.1,0.4,0.2,0.5,0
				c0.3-0.5,0.5-1.2,0.5-1.9c0.3,0.1,0.6,0.1,0.8,0.2c-0.4,1-0.4,2.4,0.5,2.6c0.7,0.2,0.8-0.6,0.8-1.1c0-0.4,0-0.8,0-1.3
				c0.5,0.1,1.1,0.2,1.6,0.4c-0.2,0.6-0.1,1.2,0.1,1.8c0.1,0.1,0.3,0.1,0.3,0c0.1-0.5,0.2-1.1,0.2-1.6c0.2,0,0.4,0.1,0.7,0.1
				c-0.3,0.6-0.2,1.5,0.2,1.9c0.2,0.2,0.4,0.1,0.5-0.1c0.1-0.4,0.2-1.1,0.1-1.6c0.3,0.1,0.5,0.1,0.8,0.2c0.2,0,0.4,0.1,0.6,0.1
				c-0.3,0.7-0.2,1.7,0.2,2.2c0.1,0.2,0.4,0.2,0.5-0.1c0.2-0.5,0.2-1,0.2-1.5c0-0.2,0-0.3,0-0.5c0.4,0.1,0.7,0.1,1.1,0.2
				c-0.2,0.6-0.1,1.4,0.2,1.9c0.1,0.2,0.5,0.3,0.6,0c0.2-0.5,0.2-1.1,0.1-1.7c0.5,0.1,1,0.2,1.5,0.2c-0.3,0.8-0.2,1.8,0.5,2.3
				c0.2,0.2,0.5,0,0.5-0.3c0-0.6-0.2-1.3-0.4-1.9c0.7,0.1,1.3,0.2,2,0.3c-0.4,0.7-0.4,1.6,0.2,2.2c0.1,0.1,0.4,0.1,0.5-0.1
				c0.2-0.7,0.2-1.4,0-2.1c0.7,0.1,1.4,0.2,2.1,0.2c0,0.1,0,0.1,0,0.2c0,0.6,0.1,1.1,0.4,1.6c0.1,0.1,0.3,0.1,0.3,0
				c0.2-0.5,0.2-1.1,0-1.6c0.5,0.1,1,0.1,1.5,0.2c-0.2,0.8,0.2,1.7,0.7,2.1c0.2,0.1,0.4,0,0.5-0.2c0.1-0.5,0-1.2-0.3-1.8
				c0.4,0,0.9,0.1,1.3,0.1c-0.4,0.7-0.2,2,0.7,2.1c0.1,0,0.2-0.1,0.3-0.2c0.2-0.4,0-0.8-0.1-1.2c-0.1-0.2-0.1-0.4-0.2-0.6
				c0.7,0.1,1.3,0.1,2,0.1c-0.3,0.6,0,1.5,0.6,1.8c0.2,0.1,0.5,0.1,0.5-0.2c0-0.5-0.1-1.1-0.4-1.6c0.6,0,1.1,0.1,1.7,0.1
				c-0.3,0.7-0.2,1.5,0.4,1.9c0.1,0.1,0.3,0,0.3-0.1c0.1-0.5,0-0.8,0-1.3c0-0.1,0-0.3,0-0.4c0.6,0,1.2,0,1.8,0.1
				c-0.2,0.7,0.2,1.5,0.9,1.6c0.2,0,0.3-0.1,0.3-0.3c-0.1-0.3-0.2-0.5-0.3-0.8c-0.1-0.2-0.1-0.3-0.1-0.5c0.7,0,1.5,0,2.2,0
				c-0.1,0.7,0.1,1.5,0.9,1.6c0.1,0,0.2-0.1,0.3-0.2c0.1-0.4-0.1-0.9-0.2-1.3c0.7,0,1.3,0,2,0c0,0.8,0.3,1.6,1.1,1.7
				c0.1,0,0.3-0.1,0.3-0.2c0.2-0.4,0-1-0.2-1.5c0.7,0,1.5-0.1,2.2-0.1c0,0.9,0.8,2,1.5,2.1c0.2,0,0.3-0.1,0.2-0.3
				c0-0.6-0.4-1.1-0.6-1.6c0-0.1-0.1-0.2-0.1-0.3c0.9,0,1.7,0,2.6-0.1c-0.2,0.9,0,1.7,0.9,2.1c0.2,0.1,0.4-0.1,0.4-0.3
				c-0.1-0.6-0.4-1.2-0.5-1.8c0.7,0,1.5-0.1,2.2-0.2c-0.4,0.7-0.3,1.7,0.4,1.9c0.3,0.1,0.5-0.1,0.6-0.5c0-0.3-0.1-0.7-0.2-1
				c0-0.2,0-0.3,0-0.5c0.4,0,0.8-0.1,1.2-0.1c-0.2,0.7,0,1.5,0.5,2.1c0.2,0.2,0.6,0.2,0.6-0.2c0-0.6,0-1.3-0.2-2
				c0.9-0.1,1.7-0.2,2.6-0.3c-0.1,0.7,0.4,1.5,1,1.8c0.2,0.1,0.4-0.1,0.4-0.3c0-0.5-0.1-1.2-0.3-1.7c2.9-0.4,5.8-0.9,8.6-1.5
				c0,0.4,0.1,1.1,0.1,1.2c0.2,0.5,0.4,0.9,1,1c0.1,0,0.3-0.1,0.3-0.2c0-0.4-0.2-0.6-0.3-0.9c-0.2-0.4-0.3-0.8-0.5-1.2
				c0.5-0.1,1.1-0.2,1.6-0.3c-0.4,0.6,0.1,1.8,0.7,2.2c0.2,0.1,0.4,0.1,0.6,0c0.3-0.2,0.1-0.6,0-0.9c-0.2-0.4-0.4-1.1-0.7-1.4
				c0.1,0,0.2,0,0.3-0.1c0.2,0,0.3-0.1,0.5-0.1c0,0.9,0.5,1.8,1.1,2.3c0.2,0.2,0.5,0,0.5-0.3c-0.1-0.7-0.4-1.5-0.8-2.2
				c0.8-0.2,1.5-0.5,2.3-0.8c0.6,0.9,1.4,2,2.4,2.4c0.1,0,0.2-0.1,0.2-0.2c-0.4-0.9-1.4-1.8-2.3-2.3c0.8-0.4,1.6-0.8,2.3-1.3
				c0.2,0.5,0.7,1.1,0.8,1.2c0.4,0.4,0.9,0.7,1.5,0.6c0.2,0,0.3-0.3,0.2-0.4c-0.4-0.6-1.1-1-1.6-1.6c-0.1-0.1-0.1-0.2-0.2-0.3
				c0.5-0.3,0.9-0.7,1.3-1.1c0.4,0.9,1.6,1.8,2.4,1.9c0.2,0,0.3-0.2,0.3-0.4C334.8,93.4,334.3,92.9,333.8,92.5z"/>
			<path class="st0" d="M336,92.2c-0.2-0.7-1.2-1.5-1.9-1.5c0,0-0.1,0.1-0.1,0.1c0.1,0.7,1.1,1.5,1.8,1.6
				C335.9,92.4,336.1,92.3,336,92.2z"/>
			<path class="st0" d="M335.5,85.7c0.3,0,0.5,0,0.8-0.2c0.2-0.1,0.2-0.4-0.1-0.5c-0.3-0.1-0.5,0-0.8,0.1
				C335.1,85.2,335.2,85.6,335.5,85.7z"/>
			<path class="st0" d="M226.4,94.8c-2.4-0.1-4.7-0.1-7.1-0.6c-1.3-0.3-2.5-0.6-3.8-1c0-0.1-0.2-0.2-0.3-0.1c0,0,0,0,0,0
				c-0.4-0.1-0.8-0.2-1.2-0.3c-0.1-0.2-0.2-0.2-0.3-0.1c-0.4-0.1-0.9-0.2-1.3-0.3c-0.2,0-0.2,0.2-0.1,0.3c0.1,0.1,0.2,0.1,0.4,0.2
				c0,0,0.1,0,0.1-0.1c0.1,0.2,0.3,0.3,0.5,0.5c-0.1,0.1-0.1,0.2-0.2,0.2c-0.6,1-1.7,2.8-1.1,3.9c0.1,0.1,0.2,0.2,0.3,0.1
				c0.7-0.5,0.8-1.5,1-2.2c0.1-0.5,0.3-0.9,0.4-1.4c0,0,0-0.1,0.1-0.3c0.2,0.1,0.5,0.2,0.7,0.3c-0.8,1.2-1.2,2.9-1,4.1
				c0,0.3,0.4,0.3,0.5,0.1c0.4-0.8,0.6-1.7,0.8-2.5c0.1-0.5,0.3-0.9,0.4-1.4c0.3,0.1,0.7,0.2,1,0.3c-0.4,0.5-0.6,1.2-0.9,1.8
				c-0.3,0.9-0.7,1.8-0.5,2.8c0,0.2,0.3,0.3,0.4,0.1c0.6-0.8,0.8-1.8,1.1-2.7c0.2-0.6,0.5-1.2,0.6-1.8c0.4,0.1,0.8,0.2,1.2,0.2
				c-0.8,1-2.9,5-1.1,5.3c0.2,0,0.3-0.2,0.2-0.4c-0.2-0.2,0.3-1.2,0.4-1.4c0.1-0.4,0.2-0.8,0.3-1.2c0.2-0.7,0.4-1.5,0.4-2.2
				c0.3,0,0.5,0.1,0.7,0.1c0.3,0.1,0.6,0.1,1,0.2c-0.4,0.5-0.7,1.4-0.8,1.7c-0.4,1.2-0.8,2.6-0.4,3.9c0.1,0.2,0.4,0.2,0.4,0
				c0.4-0.8,0.4-1.8,0.6-2.6c0.1-0.6,0.3-1.1,0.4-1.6c0-0.1,0.2-0.8,0.2-1.2c0.5,0.1,1,0.1,1.5,0.2c-0.7,1-1,2.4-1.1,3.6
				c0,0.7,0.1,2.4,1.2,1.8c0.1-0.1,0.2-0.2,0.1-0.3c-0.5-0.5-0.1-2.3,0-2.9c0.1-0.7,0.3-1.4,0.4-2.1c0.4,0,0.9,0,1.3,0
				c-1,1.7-1.1,3.8-0.6,5.6c0.1,0.3,0.6,0.2,0.6-0.1c0.2-1.8,0.3-3.7,0.3-5.5c0.7,0,1.4-0.1,2-0.2C226.8,95.4,226.8,94.8,226.4,94.8
				z"/>
			<path class="st0" d="M208.8,93.6C208.8,93.6,208.8,93.6,208.8,93.6c-0.6,0.2-0.9,0.7-1.2,1.1c-0.3,0.4-0.6,0.7-0.5,1.2
				c0,0.2,0.2,0.3,0.3,0.3c0.1,0,0.2,0,0.3,0c0.1,0,0.1-0.1,0.2-0.1c0,0,0-0.1,0-0.1c0-0.1,0-0.1-0.1-0.2
				C208,95.1,208.8,94.5,208.8,93.6z"/>
			<path class="st0" d="M210.2,94.8c0.3-0.6,0.7-1.1,0.9-1.8c0,0,0,0,0,0c0-0.1,0-0.2-0.1-0.1c-1,0.3-3.5,3.8-1.7,4.3
				c0.1,0,0.3,0,0.4-0.1c0,0,0,0,0.1-0.1c0.1-0.1,0.1-0.2,0-0.2C209.4,96.4,210.1,95.1,210.2,94.8z"/>
			<path class="st0" d="M211.8,94c0.1-0.2,0.5-0.9,0.4-1.1c0,0.1,0.1,0.1,0.1,0c0-0.2,0-0.2-0.1-0.3c0,0-0.1-0.1-0.1-0.1
				c-1,0.2-3.2,4.9-1.5,4.8c0.1,0,0.1-0.1,0.1-0.1c0.3-0.6,0.4-1.3,0.6-1.9C211.5,94.9,211.6,94.4,211.8,94z"/>
			<path class="st0" d="M196.2,102.1c-1.4,0.1-2.7,0.2-4-0.1c-1-0.3-2-0.6-3-0.9c-0.1-0.2-0.3-0.3-0.6-0.2c-0.1,0-0.2-0.1-0.4-0.1
				c-0.5-0.1-1-0.2-1.5-0.3c0,0,0,0,0,0c0-0.5-0.7-0.8-1-0.2c0,0,0,0,0,0c-0.2-0.1-0.4-0.1-0.5-0.2c-0.5-0.2-1-0.8-1.6-0.7
				c0,0-0.1,0-0.1,0.1c0,0,0,0.1,0,0.1c0,0,0,0,0,0c0,0,0,0,0.1,0c0,0,0,0,0,0c0.1,0.1,0.2,0.2,0.4,0.4c0,0-0.1,0-0.1,0.1
				c-0.3,0.6-0.5,1.2-0.9,1.7c0-0.6,0-1.2,0.1-1.9c0-0.1-0.1-0.1-0.2,0c-0.1,0.2-0.2,0.3-0.3,0.4c0,0,0-0.1,0-0.1
				c-0.1,0.1-0.1,0.2-0.1,0.3c0,0,0,0.1,0,0.1c-0.3,0.4-0.7,0.8-1.1,1.1c0-0.5,0.1-0.9,0.3-1.5c0,0,0,0,0,0
				c-0.8,0.5-0.9,1.3-0.8,2.1c0,0.3,0.4,0.4,0.6,0.1c0.3-0.4,0.7-0.9,0.9-1.3c-0.1,0.6-0.1,1.1,0,1.7c0,0.3,0.5,0.5,0.7,0.3
				c0.2-0.1,0.3-0.3,0.5-0.5c0,0.4,0,0.7,0.1,1.1c0.1,0.5,0.7,0.6,1,0.2c0.4-0.5,0.7-0.9,1-1.4c0,1.1,0.2,2.1,1.1,2.2
				c0.7,0.1,1.2-0.6,1.7-1.5c0.1,0.6,0.2,1.1,0.5,1.7c0.1,0.2,0.5,0.2,0.5-0.1c0-1-0.1-1.9-0.1-2.9c0.2,0.1,0.5,0.1,0.7,0.2
				c0.2,0.1,0.4,0.1,0.6,0.2c-0.5,1.1-0.3,2.8,0.4,3.4c0.1,0.1,0.3,0,0.4-0.1c0.3-0.6,0.1-1.2,0.1-1.9c0-0.3,0-0.7,0-1.1
				c0.3,0.1,0.6,0.2,0.9,0.3c-0.2,0.5-0.3,1.1-0.3,1.7c0,0.5,0.3,1.4,1,1.3c0.6-0.1,0.3-0.6,0.2-1c-0.2-0.6-0.1-1.2-0.2-1.8
				c0.3,0.1,0.6,0.1,1,0.1c-0.1,0.5-0.3,1-0.1,1.6c0.1,0.4,0.6,1.1,1.1,0.8c0.4-0.2,0.3-0.6,0.1-0.9c-0.2-0.5-0.2-1.1-0.4-1.6
				c0.2,0,0.3-0.1,0.5-0.1c-0.1,0.3-0.2,0.6-0.3,0.9c-0.1,0.2,0.2,0.4,0.3,0.2c0.3-0.4,0.6-0.9,0.7-1.4c0.2-0.1,0.3-0.1,0.5-0.3
				C196.8,102.5,196.5,102.1,196.2,102.1z M185.3,100.9c-0.2,0.5-0.5,0.9-0.8,1.4c0-0.5,0.1-1.1,0.2-1.6c0,0,0.1,0.1,0.1,0.1
				C185,100.8,185.2,100.9,185.3,100.9z M186.9,103.2c-0.2-0.4-0.2-1.1-0.2-1.7c0.4,0.1,0.9,0.2,1.3,0.4c0,0.1-0.1,0.2-0.1,0.3
				C187.5,102.6,187.4,103.9,186.9,103.2z"/>
			<path class="st0" d="M146.4,54c-0.8,0.7-1.3,2-0.9,3c0.1,0.2,0.3,0.2,0.4,0.1c0.5-0.8,0.8-2,0.8-2.9
				C146.7,54,146.5,53.9,146.4,54z"/>
			<path class="st0" d="M148.2,53.4c-0.4,0.4-0.6,1-0.8,1.6c-0.2,0.6-0.4,1.2-0.3,1.8c0,0.2,0.3,0.3,0.4,0.1c0.6-0.8,1.2-2.5,1-3.4
				C148.3,53.4,148.2,53.3,148.2,53.4z"/>
			<path class="st0" d="M149.3,55.6c0.2-0.8,0.3-1.6,0.5-2.4c0-0.1-0.2-0.2-0.2-0.1c-0.7,1.1-1.5,2.5-1.6,3.8
				c-0.1,0.5,0.2,1.4,0.9,1.1c0.1-0.1,0.2-0.2,0.1-0.3C148.8,57,149.2,56.1,149.3,55.6z"/>
			<path class="st0" d="M151.2,53.8c0-0.2-0.1-0.4-0.1-0.4c0-0.1-0.1-0.1-0.2,0c0,0,0,0,0,0c0,0,0,0,0,0.1c-0.1,0-0.1,0-0.1,0
				c-0.2,0.1-0.2,0.3-0.3,0.4c-0.2,0.5-0.4,1-0.5,1.5c-0.3,1-1,2.4-0.1,3.3c0.1,0.1,0.3,0,0.3-0.1c0.3-1.1,0.6-2.2,0.8-3.4
				C151.1,54.7,151.3,54.2,151.2,53.8z"/>
			<path class="st0" d="M155,60.4c0.5-0.7,0.5-1.5,0.6-2.3c0.1-0.7,0.3-1.4,0.4-2c0.3,0.1,0.6,0.3,0.9,0.4c-0.2,0.8-0.3,1.5-0.4,2.3
				c-0.1,1-0.4,2.1,0,3c0.1,0.2,0.4,0.3,0.5,0.1c0.6-0.8,0.5-1.9,0.6-2.9c0-0.7,0.1-1.4,0.1-2.1c0.6,0.3,1.2,0.5,1.9,0.8
				c-0.2,0.6-0.3,1.2-0.4,1.8c-0.2,0.9-0.4,1.8-0.1,2.6c0.1,0.2,0.4,0.2,0.5,0.1c0.5-0.7,0.5-1.7,0.6-2.5c0-0.5,0.1-1.1,0-1.7
				c0.6,0.2,1.2,0.4,1.7,0.7c-0.3,0.8-0.5,1.6-0.7,2.5c-0.2,1-0.5,2,0,3c0.1,0.2,0.3,0.2,0.5,0.1c0.6-0.8,0.6-1.9,0.7-2.9
				c0.1-0.8,0.1-1.6,0.1-2.4c0.6,0.2,1.2,0.4,1.8,0.7c-0.2,0.6-0.4,1.3-0.5,1.9c-0.3,1-0.5,2-0.4,3c0,0.3,0.4,0.3,0.6,0.1
				c0.5-0.9,0.6-2,0.7-3c0.1-0.6,0.2-1.2,0.3-1.8c0.5,0.2,1,0.4,1.5,0.5c-0.7,1.4-1.1,3.3-0.8,4.7c0,0.2,0.3,0.3,0.5,0.1
				c0.7-1.2,1-3.1,0.9-4.6c0.6,0.2,1.2,0.5,1.9,0.7c-0.7,1.5-1.1,3.3-0.9,4.9c0,0.3,0.4,0.3,0.5,0.1c0.6-1.4,1-3.1,1.2-4.7
				c0.4,0.1,0.8,0.3,1.2,0.4c-0.3,0.7-0.6,1.5-0.8,2.3c-0.3,0.9-0.6,1.8-0.2,2.7c0.1,0.1,0.3,0.2,0.3,0c0.6-0.8,0.8-2,1.1-3
				c0.1-0.6,0.3-1.1,0.4-1.7c0.4,0.2,0.9,0.3,1.3,0.5c-0.3,0.7-0.4,1.6-0.7,2.3c-0.3,1-0.6,1.9-0.5,2.9c0,0.2,0.3,0.2,0.4,0.1
				c0.7-0.9,0.9-1.9,1.1-3c0.1-0.7,0.3-1.4,0.3-2.1c0.8,0.3,1.5,0.5,2.3,0.8c-0.9,1.9-1.5,4.2-1.2,6.1c0,0.2,0.3,0.2,0.3,0
				c0.4-1.1,0.5-2.3,0.8-3.5c0.2-0.8,0.4-1.6,0.6-2.4c0.6,0.2,1.3,0.5,1.9,0.7c-0.8,1.5-2.6,5.6-1.1,5.7c0.2,0,0.3-0.2,0.2-0.3
				c-0.1-0.2,0.8-2.2,0.9-2.6c0.2-0.9,0.4-1.7,0.5-2.6c0.1,0,0.2,0.1,0.3,0.1c0.5,0.2,1,0.4,1.5,0.5c-0.5,0.8-0.8,2.2-1,3.1
				c-0.3,1.2-0.6,2.3-0.5,3.5c0,0.3,0.4,0.4,0.6,0.1c0.8-1.3,1.1-2.7,1.4-4.1c0.1-0.6,0.4-1.5,0.4-2.3c0.5,0.2,1.1,0.4,1.6,0.6
				c-0.4,0.7-0.6,1.6-0.8,2.4c-0.2,1.1-0.6,2.5,0,3.6c0.1,0.3,0.5,0.2,0.6,0c0.5-1,0.4-2.1,0.5-3.2c0.1-0.8,0.3-1.7,0.3-2.5
				c0.7,0.3,1.4,0.5,2.1,0.8c-1.2,1.7-2,5.1-0.9,6.7c0.1,0.2,0.4,0.1,0.5-0.1c0.6-1,0.4-2.4,0.5-3.5c0.1-1,0.4-1.9,0.4-2.9
				c0.7,0.2,1.3,0.5,2,0.7c-0.6,1.3-1.1,2.7-1.4,4.1c-0.3,1-0.5,2,0.2,2.8c0.2,0.2,0.5,0.2,0.6-0.1c0.4-1,0.4-2.3,0.6-3.4
				c0.2-1.1,0.3-2.2,0.3-3.3c0.7,0.2,1.3,0.5,2,0.7c-0.1,0-0.1,0-0.2,0.1c0,0,0,0,0,0c-0.9,0.9-1.2,2.6-1.5,3.8
				c-0.2,0.8-0.5,1.8,0.2,2.4c0.1,0.1,0.3,0.1,0.5,0c0,0,0.1,0,0.1-0.1c0.1-0.1,0.1-0.2,0-0.3c-0.2-0.2,0.4-1.3,0.5-1.6
				c0.1-0.4,0.2-0.9,0.4-1.4c0.2-0.9,0.5-1.9,0.3-2.8c0-0.1-0.1-0.1-0.1-0.1c0.5,0.2,0.9,0.3,1.4,0.5c0,0.2,0.1,0.5,0.2,0.6
				c0,0.1-0.1,0.2-0.1,0.2c-0.1,0.3-0.2,0.6-0.3,0.8c-0.2,0.5-0.3,1.1-0.4,1.7c-0.2,1-0.3,2,0,3.1c0.1,0.2,0.4,0.2,0.5,0
				c0.7-1.4,0.8-3.1,1.1-4.7c0.1-0.3,0.2-0.8,0.3-1.3c0.7,0.3,1.4,0.5,2.1,0.8c-0.9,2.1-3,7.5-0.9,6.9c0.1,0,0.3-0.1,0.3-0.3
				c0,0,0-0.1,0-0.1c0-0.1,0-0.1-0.1-0.2c0,0,0.1-0.1,0-0.2c0-0.2,0.1-0.5,0.1-0.7c0.1-0.5,0.1-0.9,0.2-1.4c0.2-0.9,0.5-1.8,0.7-2.7
				c0.1-0.2,0.2-0.6,0.3-1.1c0.5,0.2,1,0.4,1.5,0.6c-0.1,0-0.1,0.1-0.1,0.2c0,0.1,0,0.1,0.1,0.2c0,0,0,0,0.1,0c0,0,0.1,0,0.1,0
				c-0.1,0-0.2,0-0.2,0c-0.1,0.2-0.2,0.4-0.3,0.6c-0.1,0.3-0.2,0.5-0.3,0.8c-0.2,0.6-0.4,1.3-0.5,1.9c-0.2,1-0.3,2.2,0.3,3.2
				c0.1,0.1,0.3,0.1,0.4,0c0.7-1.1,0.6-2.6,0.8-3.9c0.1-0.7,0.7-2.1,0.4-2.8c0.8,0.3,1.5,0.5,2.3,0.8c-0.6,1.1-1.1,2.4-1.4,3.6
				c-0.2,0.8-0.3,1.9,0.5,2.4c0.2,0.2,0.5,0,0.6-0.2c0.3-1.8,0.9-3.7,1-5.5c0.6,0.2,1.2,0.4,1.8,0.6c-0.5,0.8-0.7,1.7-1,2.5
				c-0.2,0.6-0.5,1.4,0.2,1.8c0.4,0.2,0.7,0,0.7-0.4c0-0.3,0.2-0.8,0.3-1.1c0.1-0.3,0.1-0.6,0.2-0.9c0.1-0.5,0.2-1.1,0.3-1.6
				c0.4,0.2,0.9,0.3,1.3,0.5c-0.4,0.7-0.6,1.9-0.5,2.6c0,0.2,0.4,0.3,0.5,0.1c0.4-0.6,0.8-1.6,0.7-2.4c0.9,0.3,1.8,0.7,2.7,1
				c0.8,0.3,1.3-0.9,0.5-1.2c-9.6-3.5-19.1-6.9-28.7-10.4c-1.1-0.4-2.2-0.8-3.3-1.2c0-0.1,0-0.2,0.1-0.2c0-0.1-0.1-0.1-0.1-0.1
				c0,0.1-0.1,0.1-0.1,0.2c-2.2-0.8-4.5-1.6-6.7-2.4c0,0,0,0,0-0.1c0-0.1-0.1-0.1-0.2-0.1c0,0,0,0,0,0.1c-1.2-0.4-2.4-0.9-3.6-1.3
				c-4.7-1.8-9.3-4.2-14.1-5.7c-0.2-0.1-0.4,0.2-0.2,0.3c0.3,0.2,0.6,0.4,0.8,0.6c-0.4,0.8-0.7,1.7-0.9,2.7
				c-0.2,0.9-0.5,1.8-0.2,2.7c0.1,0.2,0.4,0.2,0.5,0.1c0.6-0.8,0.6-1.7,0.7-2.6c0.1-0.9,0.2-1.7,0.1-2.6c0.5,0.3,1,0.6,1.4,0.9
				c-0.9,1.3-1.5,3.5-0.9,4.8c0.1,0.1,0.3,0.2,0.4,0c0.5-0.7,0.5-1.5,0.7-2.4c0.1-0.7,0.3-1.5,0.3-2.2c0.3,0.2,0.7,0.4,1,0.5
				c-0.4,0.6-0.6,1.4-0.8,2.1c-0.2,0.8-0.5,1.7-0.1,2.5C154.7,60.5,154.9,60.6,155,60.4z"/>
			<path class="st0" d="M138.3,42.3c0,0.1,0.1,0.2,0.2,0.1c0.6-0.1,0.7-0.6,1.1-1c0.4-0.5,0.9-0.9,1.4-1.3c-0.2,0.6-0.3,1.2-0.3,1.4
				c0,0.1,0,0.1,0,0.2c-0.9,0.2-2,0.8-1.8,1.7c0,0.2,0.2,0.3,0.4,0.3c0.4,0,0.6-0.3,0.9-0.6c0.2-0.2,0.4-0.4,0.7-0.6
				c0.3,1.1,1.1,2.1,2.3,2.3c0.2,0,0.4-0.2,0.2-0.4c-0.6-0.7-1.4-1.4-1.6-2.4c-0.1-0.4-0.1-0.9-0.1-1.3c0-0.2,0.3-1.5,0.6-1.6
				c0,0,0,0,0,0c0,0,0,0,0.1,0c0,0,0,0,0,0c0.1-0.1,0.1-0.1,0.1-0.2c0-0.1,0-0.1-0.1-0.1c-0.5-0.2-1,0.3-1.3,1
				c-0.5,0-0.9,0.2-1.3,0.4c0.4-1.4,0.7-2.9,1.2-4.3c0.1-0.2-0.2-0.3-0.3-0.1c-0.7,1.5-1.1,3-1.3,4.6c-0.1,0.1-0.3,0.2-0.4,0.3
				C138.6,41.1,138,41.7,138.3,42.3z"/>
			<path class="st0" d="M120.5,6.4C119.7,6.7,119,8,119,8.9c0,0.2,0.3,0.2,0.3,0.1c0.3-0.4,0.5-0.9,0.7-1.4
				C120.3,7.2,120.5,6.9,120.5,6.4C120.6,6.4,120.6,6.4,120.5,6.4z"/>
			<path class="st0" d="M121.2,7.6c-0.7,0.5-1.3,1.4-1.2,2.3c0,0.2,0.2,0.2,0.3,0.1c0.5-0.6,0.8-1.5,1.2-2.2
				C121.5,7.6,121.3,7.5,121.2,7.6z"/>
			<path class="st0" d="M127.5,21.8c0.4-0.5,0.5-1.1,0.7-1.6c0.1-0.4,0.3-0.9,0.4-1.3c0.2,0.4,0.5,0.8,0.7,1.1
				c-1,0.8-1.2,2.5-0.9,3.6c0.1,0.3,0.5,0.2,0.6,0c0.3-0.6,0.4-1.2,0.5-1.8c0.1-0.3,0.2-0.6,0.3-0.9c0.3,0.4,0.5,0.8,0.8,1.2
				c-0.4,0.5-0.6,1.3-0.8,1.9c-0.3,0.8-0.6,1.6-0.5,2.5c0,0.2,0.3,0.3,0.5,0.1c0.6-0.7,0.8-1.6,1-2.5c0.1-0.4,0.3-0.9,0.3-1.4
				c0.2,0.4,0.5,0.8,0.7,1.2c-0.4,0.5-0.7,1.2-0.9,1.9c-0.3,0.7-0.6,1.4-0.3,2.2c0,0.2,0.3,0.2,0.4,0.1c0.6-0.5,0.7-1.3,0.9-2.1
				c0.1-0.5,0.3-1,0.4-1.5c0.3,0.5,0.6,0.9,0.9,1.4c-0.6,0.7-0.9,1.6-1.2,2.5c-0.3,1-0.6,2.1-0.4,3.1c0,0.2,0.4,0.3,0.5,0.1
				c0.5-0.8,0.7-1.8,1-2.8c0.2-0.7,0.5-1.5,0.6-2.3c0.4,0.7,0.8,1.3,1.3,2c-1,1.5-1.9,3.4-1.9,5.1c0,0.2,0.3,0.4,0.4,0.2
				c0.9-1.4,1.4-3.1,1.9-4.7c0.3,0.5,0.6,0.9,0.9,1.3c-1.1,1.6-2.1,3.9-1.8,5.6c0,0.2,0.3,0.2,0.4,0.1c0.6-0.9,0.8-2.1,1.1-3.1
				c0.2-0.7,0.5-1.3,0.7-2c0.3,0.5,0.6,1,1,1.4c-0.9,0.8-1.1,2.4-1.5,3.5c-0.3,1-0.7,2,0,2.9c0.1,0.2,0.4,0.1,0.4-0.1
				c0.1-1.3,0.6-2.4,0.9-3.7c0.2-0.7,0.5-1.4,0.4-2.2c0.5,0.7,1,1.4,1.5,2.1c-0.9,1.7-1.9,3.9-1.8,5.9c0,0.3,0.4,0.3,0.6,0.1
				c0.9-1.6,1.3-3.6,1.7-5.4c0.1,0.2,0.3,0.4,0.4,0.6c0.2,0.2,0.5,0,0.4-0.2c-2.7-5.3-6.1-10.2-9.4-15.1
				c-3.4-5.2-6.9-10.5-10.8-15.4c0,0-0.1,0-0.1,0.1c0.6,1.1,1.2,2.2,1.9,3.2c0,0-0.1,0-0.1,0c-0.7,0.6-1.5,2-1.1,2.9
				c0.1,0.1,0.3,0.2,0.4,0c0.3-0.3,0.3-0.7,0.4-1.1c0.1-0.6,0.4-1.1,0.5-1.7c0.2,0.4,0.5,0.8,0.7,1.2c-0.7,0.7-1.3,1.7-1.3,2.7
				c0,0.2,0.3,0.2,0.4,0.1c0.5-0.7,0.8-1.5,1.2-2.3c0.2,0.4,0.4,0.7,0.7,1.1c-0.5,0.6-1.1,1.6-1,2.4c0,0.2,0.2,0.2,0.3,0.1
				c0.5-0.4,0.8-1.3,0.9-2.1c0.2,0.4,0.4,0.7,0.7,1.1c-0.9,0.9-1.4,2.5-1.3,3.6c0,0.2,0.3,0.2,0.4,0.1c0.4-0.6,0.5-1.3,0.7-2
				c0.1-0.4,0.3-0.9,0.4-1.3c0.4,0.6,0.7,1.1,1.1,1.7c0,0,0,0-0.1,0c-0.4,0.4-0.6,0.9-0.9,1.4c-0.2,0.5-0.5,1-0.4,1.6
				c0,0.1,0.2,0.2,0.3,0.1c0.4-0.4,0.6-0.9,0.8-1.5c0.2-0.5,0.4-1,0.4-1.5c0.2,0.3,0.4,0.6,0.6,1c-0.8,0.9-1.6,2.4-1.5,3.6
				c0,0.2,0.3,0.3,0.4,0.2c0.8-0.7,1.2-2,1.4-3.2c0.3,0.5,0.6,0.9,0.9,1.4c-0.8,0.9-1.5,2.3-1.3,3.4C127,21.9,127.4,22,127.5,21.8z"
				/>
			<path class="st0" d="M155.3,47.8c0.6-0.2,0.3-1.1-0.3-1c-6.6,0.8-13,3-19.5,4.4c-3,0.6-6.1,1.1-9.2,1.3c-1.8,0.1-3.6,0.1-5.4-0.1
				c-0.6-0.1-1.4-0.1-2-0.2c-0.4-0.1-2.9-1.1-1.2-1.3c0,0,0-0.1,0-0.1c-1.2-0.6-2.6,0-2.5,1c-0.1,0.1-0.1,0.1-0.2,0.3
				c0,0.1,0.1,0.1,0.1,0c0,0,0.1,0,0.1-0.1c-0.3,0.4-0.4,0.9-0.3,1.5c0,0.2,0.3,0.3,0.4,0.2c0.1-0.1,0.2-0.1,0.2-0.2
				c-0.1,0.4,0,0.8,0.3,1c0.5,0.2,1-0.2,1.4-0.7c0,0.2,0,0.3,0,0.5c0,0.2,0.3,0.3,0.5,0.2c0.2-0.2,0.4-0.3,0.5-0.5
				c-0.1,0.5,0,0.9,0.4,1.2c0.1,0.1,0.2,0,0.2-0.1c0.1-0.4,0-0.9,0-1.3c0.3,0,0.5,0.1,0.7,0.1c0.1,0,0.1,0,0.2,0
				c-0.2,0.5-0.2,1,0.1,1.5c0.1,0.1,0.2,0,0.3-0.1c0.1-0.5,0.1-0.9,0.1-1.4c0.2,0,0.5,0.1,0.7,0.1c-0.2,0.6-0.3,1.3,0.1,1.7
				c0.1,0.1,0.2,0.1,0.2,0c0.2-0.5,0.2-1.1,0.3-1.6c0.3,0,0.5,0,0.8,0.1c-0.1,0.4-0.1,0.9,0,1.3c0,0.1,0.2,0.2,0.3,0
				c0.1-0.4,0.2-0.9,0.2-1.3c0.3,0,0.6,0,0.9,0c-0.1,0.6,0,1.3,0.5,1.7c0.1,0.1,0.2,0,0.2-0.1c-0.1-0.6-0.2-1-0.1-1.6
				c0.4,0,0.8,0,1.1,0c-0.1,0.4-0.2,0.9-0.1,1.2c0.1,0.3,0.4,0.4,0.6,0.2c0.1-0.1,0-0.2-0.1-0.2c-0.1,0,0-0.7,0.1-1.3
				c0.3,0,0.6-0.1,1-0.1c-0.2,0.7-0.3,1.4,0.1,2c0.1,0.1,0.2,0.1,0.2,0c0-0.7,0-1.3,0.2-2c0.5,0,1-0.1,1.5-0.1c-0.2,0.5-0.2,1,0,1.6
				c0,0.1,0.2,0.1,0.2-0.1c0-0.5,0-1,0.1-1.5c0.5,0,1-0.1,1.4-0.2c-0.1,0.4-0.1,0.8,0,1.2c0,0.1,0.2,0.1,0.2,0c0-0.4,0-0.8,0.1-1.2
				c0.6-0.1,1.2-0.2,1.8-0.3c0,0.2-0.1,0.4-0.1,0.6c0,0.1,0.1,0.2,0.2,0c0.1-0.2,0.1-0.5,0.1-0.7C140.8,52.4,148.1,49.9,155.3,47.8z
				 M118.1,53.8C118.1,53.8,118,53.8,118.1,53.8C118,53.8,118,53.8,118.1,53.8C118,53.8,118.1,53.8,118.1,53.8z M115.8,53
				c-0.1,0.1-0.1,0.1-0.2,0.2c0-0.1,0-0.2,0-0.3c0,0,0,0,0,0.1C115.7,52.9,115.8,52.9,115.8,53z M116.4,53.7c0-0.1,0-0.3,0-0.4
				c0.2,0.1,0.4,0.1,0.6,0.2c-0.1,0.1-0.3,0.2-0.4,0.3C116.3,53.9,116.5,54.1,116.4,53.7z"/>
			<path class="st0" d="M170.6,40.4c2.1-0.9,12.1-5.7,8.5-9c0,0,0,0,0,0c-0.2,3.6-6.2,6.4-8.9,8.3C169.8,40,170.2,40.6,170.6,40.4z"
				/>
			<path class="st0" d="M252.9,78.9C252.9,78.9,252.8,78.9,252.9,78.9c-0.2,0-0.3,0-0.4,0c0,0,0,0,0,0c0.4,0.1-3.2,1.5-3.3,1.5
				c-1,0.3-2.1,0.6-3.1,0.8c-1.9,0.5-3.8,1-5.8,1.4c-4,1-8.1,1.9-12.1,2.7c-8.4,1.7-16.9,3.3-25.4,4.9c-8.6,1.6-17.3,3.3-26,4.8
				c-4,0.7-8,1.1-12,0.6c-2-0.3-4-0.7-5.9-1.2c0-0.1-0.2-0.2-0.3-0.1c-2.5-0.6-4.9-1.4-7.3-2.1c-0.3-0.1-0.5,0.3-0.2,0.5
				c0,0,0,0,0,0c-0.1,0-0.2,0-0.2,0.1c-0.4-0.2-0.7-0.4-1.1-0.5c0-0.1,0.1-0.2,0.1-0.3c0.1-0.2-0.2-0.3-0.3-0.2
				c0,0.1-0.1,0.2-0.1,0.3c-0.3-0.2-0.7-0.3-1-0.5c-0.1-0.1-0.2-0.1-0.3-0.2c0.1-0.2,0.1-0.4,0.2-0.5c0.1-0.2-0.2-0.3-0.3-0.2
				c-0.1,0.2-0.2,0.3-0.3,0.5c-0.3-0.2-0.7-0.3-1-0.5c0.1-0.2,0.2-0.4,0.2-0.6c0.1-0.2-0.2-0.3-0.3-0.2c-0.1,0.2-0.2,0.4-0.3,0.5
				c-0.1,0-0.2-0.1-0.3-0.1c-0.3-0.1-0.5-0.2-0.8-0.4c-0.1,0-0.1,0-0.2-0.1c0.1-0.3,0.3-0.6,0.4-0.9c0.1-0.1-0.1-0.2-0.2-0.2
				c-0.2,0.2-0.5,0.5-0.7,0.8c-0.1-0.1-0.2-0.2-0.3-0.4c0.1-0.2,0.1-0.4,0.1-0.6c0-0.1-0.1-0.1-0.1-0.1c0.1-0.4,0.4-0.8,0.9-1.3
				c0,0,0-0.1,0-0.1c-0.7-0.3-1.3-0.1-1.7,0.3c-0.1,0-0.2,0.1-0.3,0.2c0,0,0,0,0,0c0,0,0,0,0,0c0,0,0,0,0,0
				c-0.1,0.1-0.1,0.1-0.2,0.2c-0.2,0.3-0.4,0.5-0.5,0.8c-0.3,0.5-0.7,1-0.9,1.5c-0.1,0.4,0,0.9,0.5,0.9c0.2,0,0.2-0.2,0.1-0.3
				c0.1-0.5,0.5-1.1,0.7-1.5c0-0.1,0.1-0.2,0.1-0.3c0,0.1,0,0.2,0.1,0.3c0.1,0.2,0.1,0.3,0.3,0.4c-0.1,0.1-0.1,0.3-0.2,0.4
				c-0.3,0.6-0.6,1.1-0.6,1.7c0,0.1,0.1,0.2,0.3,0.1c0.4-0.4,0.6-0.9,0.9-1.5c0.1-0.1,0.1-0.2,0.2-0.4c0.1,0,0.1,0.1,0.2,0.1
				c-0.4,0.8-0.7,1.7-0.5,2.5c0,0.2,0.3,0.2,0.4,0c0.3-0.6,0.4-1.3,0.6-2c0-0.1,0.1-0.1,0.1-0.2c0.4,0.2,0.8,0.4,1.2,0.5
				c-0.4,0.8-0.6,1.7-0.3,2.5c0,0.1,0.3,0.2,0.3,0c0.2-0.6,0.2-1.1,0.3-1.7c0-0.2,0.1-0.4,0.2-0.7c0,0,0.1,0,0.1,0.1
				c0.3,0.1,0.6,0.3,0.8,0.4c-0.4,1-0.5,2.1-0.1,3.1c0.1,0.1,0.3,0.1,0.3,0c0.1-0.7,0-1.3,0.1-2c0-0.3,0.1-0.5,0.2-0.8
				c0.4,0.2,0.8,0.4,1.2,0.5c-0.4,1-0.6,2.3-0.1,3.2c0.1,0.1,0.3,0.1,0.3,0c0.1-0.6,0-1.3,0.1-1.9c0-0.4,0.1-0.7,0.2-1.1
				c0.4,0.2,0.8,0.3,1.1,0.5c-0.2,0.9-0.3,1.8-0.1,2.6c0,0.1,0.2,0.3,0.3,0.2c0.3-0.1,0.4-0.3,0.6-0.6c0.1-0.1-0.1-0.2-0.2-0.1
				c-0.1,0-0.2,0.1-0.3,0.1c0-0.7,0-1.4,0-2.1c0.4,0.2,0.7,0.3,1.1,0.5c-0.2,1-0.4,2.4,0.5,2.5c0.3,0.1,0.6-0.2,0.8-0.5
				c0.4-0.6,0.5-1.3,0.8-1.9c-0.1,1.1-0.1,3.1,1,2.5c0.1-0.1,0.1-0.3-0.1-0.3c-0.2,0-0.3-1.3-0.4-2.2c0.6,0.2,1.2,0.5,1.8,0.7
				c-0.2,0.9-0.1,2,0.6,2.6c0.1,0.1,0.2,0,0.2-0.1c-0.1-0.8-0.3-1.5-0.3-2.3c0.4,0.1,0.8,0.3,1.2,0.4c0,0.7,0.1,1.4,0.6,1.9
				c0.1,0.1,0.3,0,0.3-0.1c-0.1-0.6-0.2-1.1-0.3-1.6c0.6,0.2,1.1,0.3,1.7,0.5c0.1,0.5,0.3,0.9,0.7,1.2c0.1,0.1,0.2,0,0.2-0.1
				c-0.2-0.3-0.3-0.6-0.4-1c0.6,0.2,1.2,0.3,1.9,0.4c0.1,0.5,0.3,1,0.7,1.4c0.1,0.1,0.2,0,0.2-0.1c-0.1-0.4-0.2-0.8-0.3-1.2
				c0.2,0,0.4,0.1,0.6,0.1c0.9,0.1,1.8,0.2,2.7,0.3c0.3,0.7,0.7,1.4,1.3,2c0.1,0.1,0.3,0,0.2-0.1c-0.4-0.6-0.7-1.2-1-1.8
				c3.3,0.1,6.6-0.2,9.8-0.8c9.8-1.7,19.6-3.9,29.4-5.8c9.4-1.8,18.9-3.5,28.3-5.7C236.8,84.7,253.8,80.7,252.9,78.9z M151.2,93.1
				L151.2,93.1c0-0.1,0-0.2-0.1-0.3c0.4,0.2,0.9,0.4,1.3,0.6c0,0.1,0,0.2-0.1,0.3C151.9,93.5,151.5,93.3,151.2,93.1z M153.7,95
				c-0.2,0.3-0.8,1.7-1.1,0.9c-0.1-0.4,0-0.9,0-1.4c0,0,0,0,0,0c0.1,0,0.2,0.1,0.3,0.1c0.3,0.1,0.4-0.3,0.2-0.4
				c-0.2-0.1-0.3-0.2-0.5-0.2c0-0.1,0-0.2,0-0.4c0.5,0.2,1,0.4,1.5,0.6C154,94.4,153.8,94.7,153.7,95z"/>
			<path class="st0" d="M285.3,58.9c3.7-1.6,7.3-3.9,10.4-6.6c1.1-1,2.2-2,3-3.3c-0.1,0.1,1-2.9,0.7-3.5c0,0,0,0,0,0
				c0,0,0.1,0,0.1,0c0-0.1,0.1-0.1,0.1-0.2c0.1-0.1,0-0.2-0.1-0.3c-0.1,0-0.2-0.1-0.2-0.1c-0.1-0.1-0.3,0-0.3,0.1
				c-0.7,1-0.7,2.3-1.4,3.3c-1.1,1.5-2.7,2.6-4.1,3.8c-2.8,2.1-5.8,4-8.5,6.2C284.6,58.5,284.9,59.1,285.3,58.9z"/>
		</g>
		<g>
			<path class="st0" d="M338,86.1c-0.1-0.1-0.2-0.1-0.2,0.1c0,0,0,0,0,0c-1-2.1-2.9-3.8-4.7-5.3c-5.1-4.1-10.4-8.1-15.8-11.8
				c-8.8-6.1-19.4-7.8-29.8-9.5c2.5-1.3,4.8-2.8,7.1-4.3c2.2-1.4,5.3-3.4,6.4-5.9c0.9-2.2-0.7-4-2.1-5.5c-1.3-1.3-3.5-3.8-5.6-3.5
				c-0.7,0.1-1.1,0.4-1.5,1c-1.3,1.5-2.2,2.8-4.1,3.8c-3.1,1.6-6.5,2.8-9.8,3.9c-3.5,1.2-7,2.2-10.6,3c-3.5,0.8-7.1,1-10.5,1.9
				c-18.8-3.5-37.5-6.8-56.4-9.9c-8.3-1.4-16.6-2.9-24.9-4.3c2.8-2,6-4.3,5.8-7.9c0-0.3-0.3-0.6-0.6-0.6c-3.7-0.5-7.1,0.7-10.5,1.8
				c-2.2,0.7-4.4,1.4-6.6,2.1c-1.6,0.5-3.3,1-4.8,1.8c-4.9-8.4-10.4-16.8-16.5-24.4c-5.9-7.4-16.4-7-25.1-7.2
				c-0.5,0-0.7,0.3-0.7,0.8c0,1.1,0,0.9,0.7,1.8c0.1,0.1,0.1,0.1,0.2,0.1c3.1,6.1,7.2,11.7,10.3,17.7c3.2,6.3,5.8,12.9,9.5,18.9
				c-1.1,0.3-2.1,0.6-3.1,0.9c-6,1.5-11.9,3-17.8,4.5c-1.5,0.4-5.8,1.3-3.6,3.7c1.4,1.5,4.8,2.1,6.6,2.6c2.5,0.6,5,1,7.5,1
				c5.3,0,10.6-1.2,15.7-2.1c0.3,0,0.5-0.1,0.8-0.2c0.9,3,4.3,4.3,7,5.4c4.9,2.2,9.8,4.4,14.8,6.5c9.6,4.1,19.2,8.4,29,12.1
				c-9.4,3-18.8,5.8-28.6,7.3c-4.3,0.6-8.7,1-13.1,0.9c-2.1,0-4.1-0.2-6.1-0.3c-1.5-0.1-3-0.3-4.3,0.6c-5.5,3.8,5.8,9.1,8.4,9.9
				c7.4,2.3,16,3.6,23.7,3.5c1.3,0,2.5-0.1,3.8-0.2c1.7,0.8,3,2.1,4.6,3c2.1,1.1,4.3,2,6.5,2.6c2.7,0.8,6.2,2.1,9.2,1.7
				c2.7,0.4,5.9-0.9,6.8-3.5c1-3-1-5.3-3.6-6.1c-0.8-0.5-1.6-0.9-2.5-1.2c-0.4-0.1-0.8-0.3-1.2-0.4c0.7-0.2,1.4-0.3,2.1-0.5
				c1.8-0.4,3.6-0.8,5.4-1.3c3.4,3.2,8.5,5.2,12.8,6.4c2.9,0.8,6.5,1.9,9.8,1.8c3.4,0.9,7.2-1.1,8.7-4.2c0.9-1.9,0.8-3.6,0-4.9
				c4.6,1.2,9.4,2,14,3c5.3,1.1,10.6,2.4,15.9,3.3c9.8,1.7,19.8,2.4,29.7,2.2c10-0.2,20.4-0.9,30.2-3
				C332.2,98.5,341.4,93.8,338,86.1z M326.5,78.3c-1.6,0.5-3.1,1.4-4.8,1.8c-1.4,0.3-2.8,0.6-4.1,0.8c-1.1,0.2-3.9,1.1-4.8,0.3
				c-0.4-0.3-0.7-2.8-1-3.4c-0.4-0.9-1.2-1.8-1.6-2.7c-0.7-1.7,1.4-1.5,2.8-1.7c1.7-0.3,3.5-0.5,4.9-1.6c2,1.4,3.9,2.9,5.8,4.4
				C324.6,76.9,325.6,77.6,326.5,78.3z M272,52.5c5.2-1.4,10.2-3.1,15.1-5.3c1.9-0.9,3.4-1.8,4.9-3.3c0.2-0.2,0.3-0.7,0.6-0.9
				c1.2-0.8,2.1-0.7,3.1-0.1c1.1,0.6,3,2.3,3.5,3.4c1.6,4.1-3.4,6.7-6.2,8.6c-2.2,1.5-4.4,2.9-6.4,4.6c-1.7-0.3-3.3-0.6-4.9-0.9
				c-6.7-1.2-13.3-2.5-20-3.7C265.3,54.3,268.8,53.4,272,52.5z M163.5,36.5c2.8-0.8,5.5-1.7,8.3-2.5c1.4-0.4,2.7-0.9,4.1-1.1
				c0.6-0.1,1.3-0.2,1.9-0.3c1.7-0.5,2.1-0.2,1.4,1.1c-0.1,2.1-3.9,4.3-5.9,5.7c-3.8-0.6-7.6-1.2-11.4-1.6c-0.5-0.1-1.1-0.2-1.6-0.3
				C161.4,37.2,162.4,36.9,163.5,36.5z M117.7,7c0-0.1,0-0.2,0-0.3c4.1,0.1,8.2,0.4,12.3,0.9c2.3,0.3,4.6,0.7,6.7,1.8
				c2.5,1.3,4.1,3.4,5.7,5.6c5.3,7,10,14.4,14.5,22c-4.9-0.4-10.1-0.1-14.6,0.5c-2.1,0.3-4.3,1.1-5.1,3.3c0,0.1,0,0.1-0.1,0.2
				C130.7,29.7,126.9,16.4,117.7,7z M125.3,55.8c-1.9-0.1-3.8-0.4-5.6-0.9c-1-0.3-2-0.5-2.9-0.9c-0.9-0.3-2.1-0.3-1.7-1.5
				c0.5-1.4,3.9-1.6,5.3-2c1.9-0.5,3.7-1,5.6-1.4c3.7-0.9,7.4-1.9,11.2-2.8c2.4-0.6,4.8-1.6,7.3-2c3,0.2,6,0.8,8.8,2.1
				c1.1,0.5,5.2,2.2,2.7,4.4c-0.5,0.4-2,0.5-2.6,0.7c-1.8,0.4-3.7,0.8-5.5,1.2C140.6,54.2,132.7,56.2,125.3,55.8z M203.5,102.8
				c0.3,2.8-3.3,4.5-5.7,3.7c-2.6-0.8-2.9-3.6-1.3-5.5c1.5-1.8,3.3-2,5.1-1.3C202.7,100.6,203.4,101.6,203.5,102.8z M198.8,98.1
				c0.2,0.1,0.4,0.1,0.6,0.2c0,0,0,0.1,0,0.1c-1.3,0.2-2.6,0.8-3.5,1.6c-1.9,1.8-2.3,4.6-0.8,6.4c-2.6-0.5-5.2-1.1-7.7-1.9
				c-2.2-0.7-4.3-1.6-6.2-2.8c-0.6-0.3-1.1-0.8-1.6-1.1c5.5-0.7,10.8-2,16.2-3.4C196.7,97.6,197.8,97.7,198.8,98.1z M166.6,99.3
				c-3.5-0.4-6.9-1.1-10.3-1.7c-3.9-0.8-8.1-1.7-11.4-4.1c-0.7-0.6-1.9-1.3-2.3-2.1c-0.9-2.1,0.8-3.1,2.6-3c1.6,0.1,3.3,0.3,4.9,0.4
				c3.5,0.1,7,0,10.4-0.3c14.7-1.3,28.7-6.2,42.7-10.7c8.4-2.7,18-7,27-5.4c2.4,0.4,23.3,5,27,8.9c0.2,0.3,0.3,0.7,0.5,1
				c-3.1,1.5-6.8,1.8-10.1,2.4c-4.1,0.7-8.2,1.5-12.2,2.4c-7.8,1.6-15.5,3.3-23.3,5C197.3,95.4,182,101.2,166.6,99.3z M217.5,99.7
				c-4.1-1.2-7.7-3.3-11.6-4.9c7-1.7,14.1-3.2,21.2-4.7c1.3,0.5,2.6,0.9,3.9,1.6c0.2,0.1,0.4,0.2,0.6,0.4c-2-0.4-4.3,0.2-5.8,1.7
				c-2.1,2.1-2.5,5.4-0.9,7.6C222.3,101,219.9,100.5,217.5,99.7z M229.4,101.6c-3.4,0-4.7-3.4-2.8-6.1c1.8-2.5,6-3.2,8.2-0.6
				c0,0,0.1,0,0.1,0c0-0.1-0.1-0.1-0.1-0.2c0.7,0.9,1,1.9,0.2,3.4C234,100.1,231.7,101.6,229.4,101.6z M317.4,99.5
				c-9.2,1.2-18.5,1.8-27.8,1.6c-8.8-0.2-17.6-1.1-26.2-2.8c-9.4-1.9-18.8-4.7-28.3-6.2c-0.2,0-0.4,0-0.5,0.1
				c-0.8-0.7-1.9-1.2-2.8-1.6c-0.8-0.4-1.7-0.7-2.6-1c0.5-0.1,1-0.2,1.5-0.3c5.2-1,10.4-2,15.6-3c3.9-0.7,8.3-1,11.9-2.7
				c0.3,0.1,0.7,0,0.9-0.4c0,0,0-0.1,0-0.1c0,0,0,0,0,0c0.4-0.2,0.5-0.7,0.3-1c0.2-1.6-1.2-2.7-2.7-3.5c-4.3-2.3-9.3-3.7-14-5
				c-4-1.1-8.1-2.1-12.3-2.8c-4.4-0.8-8.3-0.2-12.6,0.9c-7.2,1.9-14.2,4.3-21.3,6.6c0,0,0,0-0.1-0.1c-9.1-4-18.5-7.6-27.7-11.5
				c-4.6-2-9.2-4-13.7-6c-3.8-1.7-7.6-3.1-10.6-5.9c1.9-0.3,3.8-0.7,5.7-1.1c2.1-0.5,5-0.7,6.9-1.8c2.8-1.7,0.7-4.7-1.4-5.8
				c-2.5-1.5-5.3-2.3-8.2-2.5c-2.5-0.7-5.4-0.3-8.2,0.4c0,0,0-0.1,0-0.1c-2.9-5.7,7.5-5.5,10.8-5.7c2.6-0.1,5.2,0,7.7,0.1
				c0.2,0.1,0.4,0.1,0.7,0c0.4,0,0.8,0,1.2,0c4.3,0.9,8.6,1.7,13,2.5c0.2,0.2,0.5,0.2,0.8,0.1c6.2,1.1,12.5,2,18.7,3.1
				c12.6,2.2,25.2,4.4,37.8,6.6c12.8,2.3,25.6,4.6,38.4,6.9c6.3,1.2,12.6,2.3,18.9,3.5c6.3,1.2,12.8,2,18.8,4
				c4,1.3,7.6,3.6,11.1,6.1c-2,0.8-4.3,0.9-6.3,1.3c-0.6,0.1-1.8,0.2-2.2,0.8c-0.5,0.8,0.1,1.3,0.4,2c0.5,1,1.2,1.8,1.6,2.8
				c0.5,1.1,0.5,2.3,0.9,3.4c1,2.5,4.1,1.1,6.3,0.7c3-0.5,7.4-0.8,9.4-3.4c0,0,0,0,0-0.1c1.6,1.2,3.1,2.3,4.7,3.5
				c2.6,1.9,5.6,4.3,5.5,7.9c0,0,0,0,0,0.1C335.3,97.6,324.1,98.6,317.4,99.5z"/>
			<path class="st0" d="M166.2,50.9c0-0.7,0.3-1.4,0.1-2c-0.4-1.3-2.1-1.1-2.9-0.5c-0.1,0.1-0.2,0.4,0,0.5c0,0,0.1,0,0.1,0
				c-0.9,1.1-1.1,2.7-0.9,4.1c0.1,0.6,0.3,1.6,0.9,1.9c0.9,0.4,2.3,0.2,3.2-0.1c0.2-0.1,0.3-0.4,0.2-0.6
				C166.5,53.2,166.2,52.1,166.2,50.9z M164.3,49.1c0.1,0,0.2,0,0.4,0c1.2,0,0.8,1,0.8,1.9c0,1.1,0.2,2.1,0.5,3.1
				c-0.6,0-1.3,0-1.9-0.1C163.4,52.2,163.7,50.7,164.3,49.1z"/>
			<path class="st0" d="M297.4,72.6c-1-0.8-3.7-1.4-4.5-0.2c-0.2,0.2,0,0.5,0.3,0.5c1.1,0,3.6-0.7,3.7,1.1c0.1,0.7-0.3,1.7-0.4,2.4
				c-0.1,0.8-0.3,1.5-0.4,2.3c-1.4,0-3.3,0.7-3.4-1.3c-0.1-1.5,0.6-2.9,0.3-4.4c0,0,0,0-0.1,0c-0.6,0.9-0.9,2.1-1.1,3.2
				c-0.2,0.8-0.3,1.7,0.1,2.5c0.9,1.9,3,1,4.5,1c0.3,0,0.5-0.1,0.5-0.4c0.2-1.5,0.5-3.1,0.8-4.6C297.8,73.9,298.1,73.2,297.4,72.6z"
				/>
			<path class="st0" d="M170.4,54.1c0.1,0,0.2-0.1,0.1-0.2C170.4,53.9,170.3,54,170.4,54.1z"/>
			<path class="st0" d="M172.4,52.8c-1.2-0.5-2,1.4-0.8,1.9C172.9,55.2,173.6,53.3,172.4,52.8z"/>
			<path class="st0" d="M179.1,55.7c0.1,0,0.2-0.1,0.1-0.2C179,55.5,179,55.6,179.1,55.7z"/>
			<path class="st0" d="M181.1,54.4c-1.2-0.5-2,1.4-0.8,1.9C181.5,56.8,182.3,54.9,181.1,54.4z"/>
			<path class="st0" d="M187.7,57.2c0.1,0,0.2-0.1,0.1-0.2C187.7,57,187.6,57.2,187.7,57.2z"/>
			<path class="st0" d="M189.7,55.9c-1.2-0.5-2,1.4-0.8,1.9C190.2,58.3,191,56.4,189.7,55.9z"/>
			<path class="st0" d="M196.4,58.8c0.1,0,0.2-0.1,0.1-0.2C196.4,58.6,196.3,58.8,196.4,58.8z"/>
			<path class="st0" d="M198.4,57.5c-1.2-0.5-2,1.4-0.8,1.9C198.9,59.9,199.6,58,198.4,57.5z"/>
			<path class="st0" d="M205.1,60.4c0.1,0,0.2-0.1,0.1-0.2C205,60.2,205,60.3,205.1,60.4z"/>
			<path class="st0" d="M207.1,59.1c-1.2-0.5-2,1.4-0.8,1.9C207.5,61.5,208.3,59.6,207.1,59.1z"/>
			<path class="st0" d="M213.7,62c0.1,0,0.2-0.1,0.1-0.2C213.7,61.8,213.6,61.9,213.7,62z"/>
			<path class="st0" d="M215.7,60.7c-1.2-0.5-2,1.4-0.8,1.9C216.2,63.1,217,61.2,215.7,60.7z"/>
			<path class="st0" d="M222.4,63.5c0.1,0,0.2-0.1,0.1-0.2C222.4,63.4,222.3,63.5,222.4,63.5z"/>
			<path class="st0" d="M224.4,62.3c-1.2-0.5-2,1.4-0.8,1.9C224.9,64.7,225.6,62.7,224.4,62.3z"/>
			<path class="st0" d="M231.1,65.1c0.1,0,0.2-0.1,0.1-0.2C231,64.9,231,65.1,231.1,65.1z"/>
			<path class="st0" d="M233.1,63.8c-1.2-0.5-2,1.4-0.8,1.9C233.5,66.2,234.3,64.3,233.1,63.8z"/>
			<path class="st0" d="M239.7,66.7c0.1,0,0.2-0.1,0.1-0.2C239.7,66.5,239.6,66.7,239.7,66.7z"/>
			<path class="st0" d="M241.7,65.4c-1.2-0.5-2,1.4-0.8,1.9C242.2,67.8,243,65.9,241.7,65.4z"/>
			<path class="st0" d="M248.4,68.3c0.1,0,0.2-0.1,0.1-0.2C248.4,68.1,248.3,68.2,248.4,68.3z"/>
			<path class="st0" d="M250.4,67c-1.2-0.5-2,1.4-0.8,1.9C250.9,69.4,251.6,67.5,250.4,67z"/>
			<path class="st0" d="M257.1,69.9c0.1,0,0.2-0.1,0.1-0.2C257,69.7,257,69.8,257.1,69.9z"/>
			<path class="st0" d="M259.1,68.6c-1.2-0.5-2,1.4-0.8,1.9C259.5,71,260.3,69.1,259.1,68.6z"/>
			<path class="st0" d="M265.7,71.4c0.1,0,0.2-0.1,0.1-0.2C265.7,71.2,265.6,71.4,265.7,71.4z"/>
			<path class="st0" d="M267.7,70.1c-1.2-0.5-2,1.4-0.8,1.9C268.2,72.6,269,70.6,267.7,70.1z"/>
			<path class="st0" d="M274.4,73c0.1,0,0.2-0.1,0.1-0.2C274.4,72.8,274.3,73,274.4,73z"/>
			<path class="st0" d="M276.4,71.7c-1.2-0.5-2,1.4-0.8,1.9C276.9,74.1,277.6,72.2,276.4,71.7z"/>
			<path class="st0" d="M283.1,74.6c0.1,0,0.2-0.1,0.1-0.2C283,74.4,283,74.6,283.1,74.6z"/>
			<path class="st0" d="M285.1,73.3c-1.2-0.5-2,1.4-0.8,1.9C285.5,75.7,286.3,73.8,285.1,73.3z"/>
		</g>
	</g>
</g>
</svg>
