<?xml version="1.0" encoding="utf-8"?>
<!-- Generator: Adobe Illustrator 28.3.0, SVG Export Plug-In . SVG Version: 6.00 Build 0)  -->
<svg version="1.1" id="Layer_2" xmlns="http://www.w3.org/2000/svg" xmlns:xlink="http://www.w3.org/1999/xlink" x="0px" y="0px"
	 viewBox="0 0 314.9 264.1" style="enable-background:new 0 0 314.9 264.1;" xml:space="preserve">
<style type="text/css">
	.st0{fill:none;stroke:#FFFFFF;stroke-width:3;stroke-miterlimit:10;}
</style>
<g>
	<path class="st0" d="M52.3,262.7c0,0-84-18.4-36-77.6c0,0-0.7-105.2,53.6-145.4c0,0,26.8-31.8,42.4-14.1"/>
	<path class="st0" d="M120.6,90.2l-8.2-78.6c0,0,30.4-17.9,52-6.1l48.5,68.7"/>
	<path class="st0" d="M19.8,180.1c0,0,90.8-105.9,253.6-75.3c0,0-23-84-102.1-89.3"/>
	<path class="st0" d="M305.1,193c0,0,31.4-57.2-27.9-84.5l-0.9,7.1c0,0-121.9-36.2-225.4,64.5l-26.6,29.8c-1.6,1.8-4.5,0.6-4.5-1.7
		v-25.3"/>
</g>
</svg>
