<?xml version="1.0" encoding="utf-8"?>
<!-- Generator: Adobe Illustrator 28.3.0, SVG Export Plug-In . SVG Version: 6.00 Build 0)  -->
<svg version="1.1" id="VARG" xmlns="http://www.w3.org/2000/svg" xmlns:xlink="http://www.w3.org/1999/xlink" x="0px" y="0px"
	 viewBox="0 0 55.8 44" style="enable-background:new 0 0 55.8 44;" xml:space="preserve">
<style type="text/css">
	.st0{fill:#007AC2;}
</style>
<g>
	<g>
		<path class="st0" d="M2.5,17.1c0,0,0.4-14.3,16.8-14.5h12.3l-2.8,12.1l-10.1,0c-3.4,0-4,2.8-4,2.8s-0.2,2.9,3,3.3l9.7,0l-2.8,12.3
			l-5.7,0C1.9,32.8,2.5,17.1,2.5,17.1z M56.8,17.1c0,0-0.7-14.3-17.1-14.5h-5.2l-2.7,12.1l8.5,0c3.4,0,4,2.8,4,2.8s0.2,2.9-3,3.3
			l-10.9,0l-4.7,20.5l11.6,0l1.9-8.2l0.9,0C57,32.8,56.8,17.1,56.8,17.1z"/>
	</g>
</g>
</svg>
