<?xml version="1.0" encoding="utf-8"?>
<!-- Generator: Adobe Illustrator 28.3.0, SVG Export Plug-In . SVG Version: 6.00 Build 0)  -->
<svg version="1.1" id="Layer_2" xmlns="http://www.w3.org/2000/svg" xmlns:xlink="http://www.w3.org/1999/xlink" x="0px" y="0px"
	 viewBox="0 0 147.8 184.2" style="enable-background:new 0 0 147.8 184.2;" xml:space="preserve">
<style type="text/css">
	.st0{fill:none;stroke:#FFFFFF;stroke-width:2;stroke-miterlimit:10;}
	.st1{fill:#FFFFFF;}
</style>
<g>
	<polygon class="st0" points="1.6,25.9 14.3,1 130.1,1 146.1,29.2 	"/>
	<path class="st0" d="M1.6,29.2v101.6c0,0,12.2,14.1,88.5,11.3l35.8-1.9c0,0,15.1-3.3,15.5-21.2V32.1"/>
	<path class="st0" d="M5.8,46.2C5.1,53.4,6,60.6,6.9,67.7c3.4,26.1,6.7,52.3,10.1,78.4c1.2,9.2,2.5,18.7,7.1,26.7"/>
	<path class="st0" d="M134.8,20.9c-4.5,19.2-7,38.8-7.6,58.5c-0.2,6-0.1,12-0.3,18c-0.3,15.2-1.6,30.3-3.7,45.4
		c-2,14.1-5,28.4-12,40.9"/>
	<path class="st1" d="M33.2,42.7c-14.8,0-26.8,12-26.8,26.8c0,14.8,12,26.8,26.8,26.8S60,84.4,60,69.6C60,54.7,48,42.7,33.2,42.7z
		 M21.1,52.5c1.1-2.6,3.7-4.4,6.5-4.7c3.4-0.5,9.6-0.2,18.9,3.8c0,0-15.1,1.6-22.4,15.5C24.2,67.1,18.4,59,21.1,52.5z M31.9,62.9
		c3.4,0,6.2,2.8,6.2,6.2c0,3.4-2.8,6.2-6.2,6.2s-6.2-2.8-6.2-6.2C25.7,65.7,28.4,62.9,31.9,62.9z M18.1,82.7c-2.8-0.6-5-2.7-5.9-5.4
		c-1.1-3.3-2.1-9.3,0-19.3c0,0,4.6,14.5,19.6,18.9C31.9,76.9,25,84.2,18.1,82.7z M45.8,85c-0.7,2.8-3,4.8-5.7,5.6
		c-3.3,1-9.4,1.6-19.3-1c0,0,14.7-3.8,19.9-18.6C40.7,71,47.6,78.3,45.8,85z M34.9,62.9c0,0,7.2-7,14-5.2c2.8,0.7,4.9,2.9,5.7,5.7
		c1,3.3,1.7,9.4-0.9,19.3C53.7,82.6,49.8,67.9,34.9,62.9z"/>
	<rect x="21.4" y="7.4" class="st0" width="30.6" height="9.9"/>
	<rect x="75.5" y="10.2" class="st0" width="13.6" height="9.9"/>
	<path class="st0" d="M122.1,12.3c-0.1-3.6-4.9-6.4-10.8-6.4c-5.9,0-10.7,2.9-10.8,6.4h0v9.9h21.6L122.1,12.3L122.1,12.3z"/>
	<path class="st0" d="M101.6,12.3c6.4,0.7,13,0.4,19.3-0.9"/>
	<path class="st0" d="M75.5,49.3v64.3c0,6.7,5.4,12.1,12.1,12.1H119c6.7,0,12.1-5.4,12.1-12.1v-64c0-7.1-5.8-12.9-12.9-12.9h-30
		C81.2,36.6,75.5,42.3,75.5,49.3z"/>
	<path class="st0" d="M117.2,119.4H91.5c-3.2,0-5.9-2.6-5.9-5.9v-60c0-3.2,2.6-5.9,5.9-5.9h25.7c3.2,0,5.9,2.6,5.9,5.9v60
		C123,116.7,120.4,119.4,117.2,119.4z"/>
	<path class="st0" d="M30.5,79.9c5.6,19.3,14.4,37.7,25.9,54.2c2.5,3.6,5.3,7.2,9.2,8.9"/>
	<path class="st0" d="M35.8,75.7c2.9,8.2,5.9,16.5,8.8,24.7c1.7,4.9,3.5,9.7,5.7,14.4c4.9,10.3,11.9,19.5,18.9,28.5"/>
	<path class="st0" d="M95.1,75.1c-1.6,4.6-2.1,9.4-2.8,14.2c-2.5,18.1-7.2,36-13.9,53"/>
	<path class="st0" d="M82,142.9c0.7-4.3,3.9-7.6,5.9-11.4c1.2-2.4,1.9-5,2.6-7.6c0.6-2.3,1.3-4.6,1.9-7c2.8-10.2,5.5-20.6,5.4-31.2"
		/>
	<polyline class="st0" points="93.8,79.9 89.9,79.9 89.9,61.9 101.6,61.9 101.6,102.3 95.7,102.3 	"/>
</g>
</svg>
