<?xml version="1.0" encoding="utf-8"?>
<!-- Generator: Adobe Illustrator 28.3.0, SVG Export Plug-In . SVG Version: 6.00 Build 0)  -->
<svg version="1.1" id="Layer_1" xmlns="http://www.w3.org/2000/svg" xmlns:xlink="http://www.w3.org/1999/xlink" x="0px" y="0px"
	 viewBox="0 0 140.2 184" style="enable-background:new 0 0 140.2 184;" xml:space="preserve">
<style type="text/css">
	.st0{fill:#FFFFFF;}
</style>
<g>
	<path class="st0" d="M140.1,42.9c1-15.6-7.7-33.7-24.9-34.1C111.3,0.7,99.8,0,91.9,0c-11-0.1-21.4,3.7-29.5,11.2
		c-16,14.7-14.5,39.7-1.4,55.6c2.3,2.8,4.9,5.2,7.8,7.3C66.5,80,63,85.3,59.6,90.7c-0.1,0.1-0.2,0.2-0.2,0.3
		c-0.4,0.6-0.8,1.3-1.2,1.9c-1.3-0.8-2.7-1.6-4-2.4c0.1-1.1-1.3-1.8-2.2-1.2c-1.1-0.2-1.9,1.2-1.3,2.1
		c-10.4,17.5-19.8,35.6-31.3,52.4c-4.3,6.4-9.5,12.1-13.5,18.6c-1,1.6-3.3,4.6-4,7.1c-1.4-0.7-2.7,1.5-1.2,2.4
		c5.4,3.3,10.6,7,16,10.4c-0.1,0.5,0.1,1,0.6,1.3c3.1,1.9,5.9-3.6,7.1-5.6c4.4-7,9.2-13.5,13.9-20.3c12.5-18,23.4-37.2,34.7-56
		c0.9-1.5-1.4-2.9-2.3-1.4c0,0,0,0.1,0,0.1c-0.9-0.6-1.8-1.1-2.8-1.7c4.8-5.3,7.2-12.8,10.7-19c0-0.1,0.1-0.2,0.1-0.2
		c9.1,3.7,19.5,4.6,29.1,2.6C126.2,78.2,139,61.5,140.1,42.9z M41.7,147.8c-1,1.5-19.5,28.6-22.6,32.9c-4.8-3-9.4-6.2-14.2-9.2
		c0-0.3-0.1-0.7-0.3-1c0.2-0.4,0.3-0.9,0.6-1.3c0.6-1.2,1.3-2.4,1.9-3.5c1.2-2.1,2.5-4.1,3.9-6.1c4.6-6.5,9.7-12.7,14.1-19.4
		c10-15.3,18.6-31.5,27.8-47.3c3.6,2.2,7.2,4.3,10.8,6.5c0,0.9,1.1,1.8,2.1,1.2c1.1,0.7,2.3,1.4,3.4,2
		C60.2,117.8,51.3,133,41.7,147.8z M65.4,97.2c-1.6-1-3.3-2-4.9-2.9c3.7-6.1,7.8-12.1,10.5-18.7c1.6,1,3.3,2,5.1,2.8
		C72.7,84.4,70.4,92.1,65.4,97.2z M80.1,77.1c-19.2-7.4-30.8-28.6-25.3-48.7C58.2,16.2,68.7,7.5,80.5,4.1c8.4-2.4,28.6-3.7,32.5,6.4
		c0,0,0,0.1,0.1,0.1c0.1,0.5,0.6,0.9,1.2,0.9c14.4-0.2,21.5,12.7,22.9,25.5c1.2,10.8-2.7,22.1-9.7,30.4
		C116,81.1,96.1,83.3,80.1,77.1z"/>
	<path class="st0" d="M112.3,19.5c-0.5-0.2-0.9-0.3-1.4-0.4C99.7,3.9,79.1,7.5,66.9,19.9C53.1,34,57.2,54.8,72.8,65.5
		c14.5,10,36.4,9.4,49.6-2.5c6.4-5.8,10.9-16.1,9.4-24.8C130,28.1,121.5,22.5,112.3,19.5z M120.5,61.1C109.3,72,90.3,71.8,77.1,65
		c-15.5-8.1-20.9-26.4-10.3-40.7c9.3-12.6,29.2-17.8,40.3-5.6c-0.8,0.6-0.9,2.1,0.4,2.4c8.7,2.1,18.1,6.2,21.2,15.4
		C131.4,44.9,126.5,55.2,120.5,61.1z"/>
	<path class="st0" d="M90.3,28c-0.7-1.8-1.6-3.6-2.4-5.4c-0.3-0.7-0.7-1.4-1-2.2c-0.1-0.3-0.3-0.6-0.4-0.8c-0.1-0.1,0-0.2,0,0.1
		c0,0,0,0,0,0c0-0.6-0.2-1.2-0.9-1.4c0,0,0,0,0,0c-0.4-0.1-1,0-1.3,0.3c-1.3,1.5,1.2,5,1.8,6.3c0.7,1.4,1.3,2.8,1.9,4.3
		c0.1,0.3,0.2,0.7,0.4,1c-0.6,0.4-0.9,1.3-0.2,1.9c1.1,0.9,2.5,1.2,3.1-0.4C91.7,30.7,90.7,28.9,90.3,28z"/>
	<path class="st0" d="M79.1,30.5c-2-2.2-4.8-3.8-7.4-5.3c-1.5-0.9-2.9,1.4-1.4,2.3c2.4,1.4,4.9,2.8,6.8,4.9
		C78.3,33.6,80.2,31.7,79.1,30.5z"/>
	<g>
		<path class="st0" d="M43.4,103.9c4-0.5,8-0.6,12-1.2c2.6-0.4,6.4-0.9,7.8-3.5c0.2-0.4-0.4-0.8-0.6-0.4c-1.5,2.8-6.4,3-9.2,3.4
			c-3.3,0.4-6.7,0.6-10,0.9C42.9,103.2,42.9,103.9,43.4,103.9z"/>
		<path class="st0" d="M69.1,109.2c-1.4-1-2.2-1-3.8-1.5c-0.5-0.1-0.7,0.6-0.2,0.7c4,1.2-0.2,1.2-1.9,1.3c-3.4,0.2-6.8,0.1-10.2,0.1
			c-5.5,0-11.1,0-16.4,1.7c-0.5,0.1-0.3,0.9,0.2,0.7c10.3-3.2,21.6-1,32.2-2.2C69.3,109.8,69.4,109.4,69.1,109.2z"/>
		<path class="st0" d="M57.3,121.4c-0.7,2.2-10.2,1.5-11.9,1.5c-4.3,0-8.9-0.1-13.1-1c-0.5-0.1-0.7,0.6-0.2,0.7
			c5.4,1.2,11.3,1.2,16.8,1c1.7,0,8.4,0.3,9.1-2C58.2,121.1,57.4,120.9,57.3,121.4z"/>
		<path class="st0" d="M54.8,130.9c-1.4-0.6-2.4-0.7-3.8-0.8c-0.5,0-0.5,0.7,0,0.8c5.8,0.1,0.1,0.1-0.4,0.2
			c-2.8,0.2-5.6,0.5-8.4,0.8c-5.6,0.6-11,0.8-16.6-0.2c-0.5-0.1-0.7,0.6-0.2,0.7c9.8,1.9,19.5-0.5,29.3-0.7
			C55.1,131.6,55.1,131.1,54.8,130.9z"/>
		<path class="st0" d="M47.2,140.6c-10.2-1.2-21.3,2.1-31.5,3c-0.5,0-0.5,0.8,0,0.8c10.2-0.9,21.3-4.2,31.5-3
			C47.6,141.4,47.6,140.7,47.2,140.6z"/>
		<path class="st0" d="M40.2,152.1c-9.9-0.1-19.9,0.5-29.8,0.5c-0.5,0-0.5,0.8,0,0.8c7,0,14,0.2,20.9,0c1.8,0,3.6-0.2,5.4-0.3
			c0.6,0,5,0.4,5,0.4c-0.4,0.2,0,0.9,0.4,0.6C44.7,152.5,41.7,152.2,40.2,152.1z"/>
		<path class="st0" d="M37.8,165.4c-6.3,0-12.7-1.1-19.1-1.4c-4.7-0.2-11.8-1.2-16,1.5c-0.4,0.3,0,0.9,0.4,0.6
			c4.4-2.8,12.4-1.5,17.3-1.3c5.1,0.2,10.3,1.1,15.4,1.3c0,0,0.1,0,0.1,0c0.6,0,1.3,0,1.9,0C38.3,166.1,38.3,165.4,37.8,165.4z"/>
		<path class="st0" d="M29.9,173.6c-8.5,0-17,0-25.5,0c-0.5,0-0.5,0.8,0,0.8c8.5,0,17,0,25.5,0C30.4,174.4,30.4,173.6,29.9,173.6z"
			/>
	</g>
</g>
</svg>
