<!--?xml version="1.0" encoding="utf-8"?-->
<!-- Generator: Adobe Illustrator 28.3.0, SVG Export Plug-In . SVG Version: 6.00 Build 0)  -->
<svg version="1.1" id="Layer_2" xmlns="http://www.w3.org/2000/svg" xmlns:xlink="http://www.w3.org/1999/xlink" x="0px" y="0px" viewBox="0 0 301.6 278.9" style="enable-background:new 0 0 301.6 278.9;" xml:space="preserve" width="301.6000061035156" height="278.8999938964844">
<style type="text/css">
	.st0{fill:none;stroke:#FFFFFF;stroke-miterlimit:10;}
</style>
<g>
	<circle class="st0 svg-elem-1" cx="151.1" cy="147.2" r="130.7"></circle>
	<path class="st0 svg-elem-2" d="M58.5,83.4C77.2,51,110,29.2,147.9,28.2c39.4-1.1,74.5,20.7,94.7,54.3"></path>
	<path class="st0 svg-elem-3" d="M278,116.2c0,0,23.5,2,22.5,16.8v27.2c0,0,2.8,14.3-22.2,17"></path>
	<path class="st0 svg-elem-4" d="M23.6,116.2c0,0-23.5,2-22.5,16.8v27.2c0,0-2.8,14.3,22.2,17"></path>
	<line class="st0 svg-elem-5" x1="289.3" y1="134.1" x2="289.3" y2="163"></line>
	<line class="st0 svg-elem-6" x1="9.7" y1="134.1" x2="9.7" y2="163"></line>
	<line class="st0 svg-elem-7" x1="279.7" y1="116.4" x2="279.7" y2="30.6"></line>
	<circle class="st0 svg-elem-8" cx="279.7" cy="15.8" r="14.8"></circle>
	<path class="st0 svg-elem-9" d="M59.8,116.2l1.8-16c0,0,13.4-57.5,95.3-62.5c0,0,82.9,15.9,83.3,71.3v19.4"></path>
	<line class="st0 svg-elem-10" x1="130.1" y1="18.2" x2="130.1" y2="29.9"></line>
	<line class="st0 svg-elem-11" x1="151.8" y1="28.1" x2="151.8" y2="16.5"></line>
	<line class="st0 svg-elem-12" x1="174.7" y1="31" x2="174.7" y2="18.6"></line>
</g>
</svg>
